{
.appVersion = "3260";
.formatVersion = 3;
DisplayStrings = (
"hamburgkerfontsiv
pbplpbpv
onesHtflOHOHHO;:
opabo
minimatfhl
nununununu
nnnnnnn",
p,
b,
l,
k,
"tn.,n1HOk:;",
".,:;",
r,
bvn,
u,
n,
"nmhOHobambmunbrgfontesiv,...,;:
pbpda",
"3",
m,
ahi78o4tf1
);
axes = (
{
name = Weight;
tag = wght;
}
);
date = "2024-04-12 00:10:30 +0000";
familyName = Coopwind;
fontMaster = (
{
axesValues = (
20
);
guides = (
{
pos = (68,770);
},
{
pos = (283,708);
}
);
id = m01;
metricValues = (
{
over = 10;
pos = 770;
},
{
over = 10;
pos = 620;
},
{
over = 10;
pos = 500;
},
{
over = -10;
},
{
over = -10;
pos = -200;
}
);
name = Coop;
},
{
axesValues = (
100
);
iconName = SemiBold_SemiCondensed;
id = "D3645D82-36A4-4D10-ABA8-93DD64813C49";
metricValues = (
{
over = 10;
pos = 770;
},
{
over = 10;
pos = 620;
},
{
over = 10;
pos = 500;
},
{
over = -10;
},
{
over = -10;
pos = -200;
}
);
name = Wind;
}
);
glyphs = (
{
glyphname = H;
lastChange = "2024-05-24 15:58:41 +0000";
layers = (
{
layerId = m01;
shapes = (
{
closed = 1;
nodes = (
(57,-5,o),
(141,-5,o),
(176,-5,cs),
(201,-5,o),
(212,-2,o),
(212,17,cs),
(212,32,o),
(207,49,o),
(193,68,cs),
(176,91,o),
(172,171,o),
(172,226,cs),
(172,299,l),
(50,299,l),
(50,226,ls),
(50,171,o),
(45,92,o),
(30,68,cs),
(18,49,o),
(10,32,o),
(10,17,cs),
(10,-2,o),
(19,-5,o),
(38,-5,cs)
);
},
{
closed = 1;
nodes = (
(172,159,l),
(171,622,l),
(50,622,l),
(50,159,l)
);
},
{
closed = 1;
nodes = (
(19,729,o),
(10,726,o),
(10,707,cs),
(10,692,o),
(18,675,o),
(30,656,cs),
(45,632,o),
(50,553,o),
(50,488,cs),
(50,405,l),
(172,405,l),
(172,488,ls),
(172,553,o),
(176,633,o),
(193,656,cs),
(207,675,o),
(212,692,o),
(212,707,cs),
(212,726,o),
(201,729,o),
(176,729,cs),
(141,729,o),
(57,729,o),
(38,729,cs)
);
},
{
closed = 1;
nodes = (
(447,-5,o),
(531,-5,o),
(566,-5,cs),
(591,-5,o),
(602,-2,o),
(602,17,cs),
(602,32,o),
(597,49,o),
(583,68,cs),
(566,91,o),
(562,171,o),
(562,226,cs),
(562,299,l),
(440,299,l),
(440,226,ls),
(440,171,o),
(435,92,o),
(420,68,cs),
(408,49,o),
(400,32,o),
(400,17,cs),
(400,-2,o),
(409,-5,o),
(428,-5,cs)
);
},
{
closed = 1;
nodes = (
(562,159,l),
(561,622,l),
(440,622,l),
(440,159,l)
);
},
{
closed = 1;
nodes = (
(409,729,o),
(400,726,o),
(400,707,cs),
(400,692,o),
(408,675,o),
(420,656,cs),
(435,632,o),
(440,553,o),
(440,488,cs),
(440,405,l),
(562,405,l),
(562,488,ls),
(562,553,o),
(566,633,o),
(583,656,cs),
(597,675,o),
(602,692,o),
(602,707,cs),
(602,726,o),
(591,729,o),
(566,729,cs),
(531,729,o),
(447,729,o),
(428,729,cs)
);
},
{
closed = 1;
nodes = (
(150,300,l),
(453,301,l),
(453,372,l),
(150,372,l)
);
}
);
width = 612;
},
{
layerId = "D3645D82-36A4-4D10-ABA8-93DD64813C49";
shapes = (
{
closed = 1;
nodes = (
(57,-5,o),
(141,-5,o),
(176,-5,cs),
(201,-5,o),
(212,-2,o),
(212,17,cs),
(212,32,o),
(207,49,o),
(193,68,cs),
(176,91,o),
(172,171,o),
(172,226,cs),
(172,299,l),
(50,299,l),
(50,226,ls),
(50,171,o),
(45,92,o),
(30,68,cs),
(18,49,o),
(10,32,o),
(10,17,cs),
(10,-2,o),
(19,-5,o),
(38,-5,cs)
);
},
{
closed = 1;
nodes = (
(172,159,l),
(171,622,l),
(50,622,l),
(50,159,l)
);
},
{
closed = 1;
nodes = (
(19,729,o),
(10,726,o),
(10,707,cs),
(10,692,o),
(18,675,o),
(30,656,cs),
(45,632,o),
(50,553,o),
(50,488,cs),
(50,405,l),
(172,405,l),
(172,488,ls),
(172,553,o),
(176,633,o),
(193,656,cs),
(207,675,o),
(212,692,o),
(212,707,cs),
(212,726,o),
(201,729,o),
(176,729,cs),
(141,729,o),
(57,729,o),
(38,729,cs)
);
},
{
closed = 1;
nodes = (
(477,-5,o),
(561,-5,o),
(596,-5,cs),
(621,-5,o),
(632,-2,o),
(632,17,cs),
(632,32,o),
(627,49,o),
(613,68,cs),
(596,91,o),
(592,171,o),
(592,226,cs),
(592,299,l),
(470,299,l),
(470,226,ls),
(470,171,o),
(465,92,o),
(450,68,cs),
(438,49,o),
(430,32,o),
(430,17,cs),
(430,-2,o),
(439,-5,o),
(458,-5,cs)
);
},
{
closed = 1;
nodes = (
(592,159,l),
(591,622,l),
(470,622,l),
(470,159,l)
);
},
{
closed = 1;
nodes = (
(439,729,o),
(430,726,o),
(430,707,cs),
(430,692,o),
(438,675,o),
(450,656,cs),
(465,632,o),
(470,553,o),
(470,488,cs),
(470,405,l),
(592,405,l),
(592,488,ls),
(592,553,o),
(596,633,o),
(613,656,cs),
(627,675,o),
(632,692,o),
(632,707,cs),
(632,726,o),
(621,729,o),
(596,729,cs),
(561,729,o),
(477,729,o),
(458,729,cs)
);
},
{
closed = 1;
nodes = (
(150,300,l),
(483,301,l),
(483,402,l),
(150,402,l)
);
}
);
width = 642;
}
);
unicode = 72;
},
{
glyphname = O;
lastChange = "2024-05-30 16:24:06 +0000";
layers = (
{
layerId = m01;
shapes = (
{
closed = 1;
nodes = (
(20,156,o),
(126,-8,o),
(344,-8,cs),
(557,-8,o),
(668,156,o),
(668,337,cs),
(668,517,o),
(557,736,o),
(344,736,cs),
(126,736,o),
(20,517,o),
(20,337,cs)
);
},
{
closed = 1;
nodes = (
(429,643,o),
(510,517,o),
(510,337,cs),
(510,156,o),
(429,85,o),
(344,85,cs),
(262,85,o),
(178,156,o),
(178,337,cs),
(178,517,o),
(262,643,o),
(344,643,cs)
);
}
);
width = 688;
},
{
guides = (
{
angle = 105;
pos = (371,234);
}
);
layerId = "D3645D82-36A4-4D10-ABA8-93DD64813C49";
shapes = (
{
closed = 1;
nodes = (
(20,156,o),
(126,-8,o),
(344,-8,cs),
(557,-8,o),
(668,156,o),
(668,337,cs),
(668,517,o),
(557,736,o),
(344,736,cs),
(126,736,o),
(20,517,o),
(20,337,cs)
);
},
{
closed = 1;
nodes = (
(558,205,o),
(496,115,o),
(414,93,cs),
(334,72,o),
(238,119,o),
(191,294,cs),
(144,468,o),
(195,612,o),
(274,633,cs),
(357,655,o),
(465,554,o),
(511,380,cs)
);
}
);
width = 688;
}
);
unicode = 79;
},
{
glyphname = a;
lastChange = "2024-05-30 16:22:54 +0000";
layers = (
{
backgroundImage = {
imagePath = "copwind/copwind 4.png";
locked = 1;
pos = (-145,-546);
scale = (2.2585,2.2585);
};
layerId = m01;
shapes = (
{
closed = 1;
nodes = (
(513,-11,o),
(515,66,o),
(502,83,cs),
(485,103,o),
(466,74,o),
(451,74,cs),
(417,74,o),
(411,129,o),
(411,167,cs),
(409,377,l),
(409,473,o),
(315,508,o),
(252,508,cs),
(181,508,o),
(102,462,o),
(73,432,cs),
(39,396,o),
(25,343,o),
(69,327,cs),
(108,313,o),
(148,335,o),
(145,372,cs),
(143,404,o),
(187,421,o),
(217,421,cs),
(260,421,o),
(288,389,o),
(288,347,cs),
(288,132,ls),
(288,86,o),
(333,-11,o),
(420,-11,cs)
);
},
{
closed = 1;
nodes = (
(290,-13,o),
(306,25,o),
(337,70,c),
(312,332,l),
(287,307,o),
(270,304,o),
(196,304,cs),
(74,304,o),
(20,209,o),
(20,133,cs),
(20,66,o),
(61,-13,o),
(165,-11,cs)
);
},
{
closed = 1;
nodes = (
(146,218,o),
(178,236,o),
(233,236,cs),
(275,236,o),
(287,220,o),
(287,161,cs),
(287,76,o),
(252,72,o),
(212,68,cs),
(167,64,o),
(142,107,o),
(144,157,cs)
);
}
);
width = 528;
},
{
backgroundImage = {
angle = -2;
imagePath = "copwind/copwind 6.png";
locked = 1;
pos = (-225,-559);
scale = (2.3155,2.3155);
};
layerId = "D3645D82-36A4-4D10-ABA8-93DD64813C49";
shapes = (
{
closed = 1;
nodes = (
(526,-8,o),
(553,46,o),
(540,63,cs),
(524,83,o),
(513,63,o),
(498,63,cs),
(476,63,o),
(468,129,o),
(461,166,cs),
(412,443,l),
(405,478,o),
(391,517,o),
(311,517,cs),
(192,517,o),
(98,434,o),
(89,423,cs),
(66,397,o),
(51,362,o),
(69,348,cs),
(93,329,o),
(113,359,o),
(133,379,cs),
(143,389,o),
(165,412,o),
(224,422,cs),
(283,432,o),
(302,381,o),
(307,349,cs),
(344,124,ls),
(358,36,o),
(363,-3,o),
(447,-6,cs)
);
},
{
closed = 1;
nodes = (
(315,-10,o),
(384,31,o),
(387,115,c),
(342,327,l),
(304,301,o),
(243,301,o),
(191,301,cs),
(118,301,o),
(20,237,o),
(20,150,cs),
(20,83,o),
(79,-10,o),
(179,-10,cs)
);
},
{
closed = 1;
nodes = (
(192,68,o),
(135,107,o),
(135,167,cs),
(139,218,o),
(181,244,o),
(234,244,cs),
(299,244,o),
(322,216,o),
(329,161,cs),
(336,96,o),
(304,72,o),
(235,68,cs)
);
}
);
width = 543;
}
);
metricLeft = n;
metricRight = n;
unicode = 97;
},
{
glyphname = b;
lastChange = "2024-05-30 16:22:38 +0000";
layers = (
{
guides = (
{
pos = (335,100);
},
{
angle = 90;
pos = (210,100);
}
);
layerId = m01;
shapes = (
{
closed = 1;
nodes = (
(490,-9,o),
(561,80,o),
(561,286,cs),
(561,433,o),
(494,513,o),
(388,513,cs),
(335,513,o),
(245,470,o),
(210,415,c),
(210,531,ls),
(210,624,o),
(211,651,o),
(211,676,cs),
(211,692,o),
(212,723,o),
(212,752,cs),
(212,769,o),
(201,779,o),
(180,779,cs),
(165,779,o),
(105,739,o),
(71,718,cs),
(37,697,o),
(20,689,o),
(20,664,cs),
(20,638,o),
(86,641,o),
(87,564,cs),
(87,540,o),
(86,505,o),
(86,464,c),
(86,251,l),
(86,179,ls),
(86,70,o),
(46,46,o),
(46,21,cs),
(46,-14,o),
(73,-7,o),
(95,-7,cs),
(124,-7,o),
(107,-7,o),
(134,-7,cs),
(160,-7,o),
(175,27,o),
(201,27,cs),
(227,27,o),
(237,-9,o),
(365,-9,cs)
);
},
{
closed = 1;
nodes = (
(273,100,o),
(219,148,o),
(219,252,cs),
(219,339,o),
(274,394,o),
(335,394,cs),
(402,394,o),
(432,329,o),
(432,252,cs),
(432,168,o),
(396,100,o),
(335,100,cs)
);
}
);
width = 581;
},
{
guides = (
{
angle = 106.0001;
pos = (299,257);
},
{
pos = (273,110);
},
{
pos = (310,409);
}
);
layerId = "D3645D82-36A4-4D10-ABA8-93DD64813C49";
shapes = (
{
closed = 1;
nodes = (
(478,-9,o),
(526,196,o),
(526,319,cs),
(526,433,o),
(459,522,o),
(373,522,cs),
(277,522,o),
(190,479,o),
(175,425,c),
(175,571,ls),
(175,694,o),
(213,732,o),
(225,743,cs),
(237,754,o),
(263,779,o),
(247,799,cs),
(231,819,o),
(194,806,o),
(180,800,cs),
(166,794,o),
(86,754,o),
(52,733,cs),
(18,712,o),
(9,676,o),
(34,676,cs),
(47,676,o),
(55,661,o),
(56,634,cs),
(57,610,o),
(55,575,o),
(55,534,c),
(55,251,l),
(55,179,ls),
(55,134,o),
(55,112,o),
(55,87,cs),
(55,7,o),
(58,-7,o),
(80,-7,cs),
(103,-7,o),
(129,-2,o),
(139,24,cs),
(148,48,o),
(150,67,o),
(176,67,cs),
(202,67,o),
(202,-9,o),
(330,-9,cs)
);
},
{
closed = 1;
nodes = (
(414,165,o),
(395,110,o),
(323,110,cs),
(251,110,o),
(198,190,o),
(198,279,cs),
(198,368,o),
(258,425,o),
(326,404,cs),
(394,383,o),
(414,326,o),
(414,242,cs)
);
}
);
width = 546;
}
);
metricLeft = n;
metricRight = n;
unicode = 98;
},
{
glyphname = d;
lastChange = "2024-05-24 12:23:52 +0000";
layers = (
{
background = {
shapes = (
{
closed = 1;
nodes = (
(189,329,o),
(224,384,o),
(285,384,cs),
(352,384,o),
(382,319,o),
(382,242,cs),
(382,158,o),
(346,90,o),
(285,90,cs),
(223,90,o),
(189,138,o),
(189,242,cs)
);
}
);
};
guides = (
{
pos = (335,100);
}
);
layerId = m01;
shapes = (
{
closed = 1;
nodes = (
(382,155,o),
(343,99,o),
(274,99,cs),
(225,99,o),
(186,158,o),
(186,232,cs),
(186,316,o),
(206,384,o),
(274,384,cs),
(344,384,o),
(382,336,o),
(382,232,cs)
);
},
{
closed = 1;
nodes = (
(503,519,l),
(503,552,o),
(503,702,o),
(503,722,cs),
(503,744,o),
(507,780,o),
(483,780,cs),
(462,780,o),
(447,766,o),
(423,750,cs),
(398,732,o),
(374,716,o),
(359,705,cs),
(340,692,o),
(325,683,o),
(325,667,cs),
(325,643,o),
(347,638,o),
(365,631,cs),
(381,624,o),
(379,580,o),
(379,526,cs),
(379,430,l),
(348,485,o),
(304,507,o),
(231,507,cs),
(134,507,o),
(58,400,o),
(58,264,cs),
(58,111,o),
(128,-9,o),
(216,-9,cs),
(344,-9,o),
(352,52,o),
(378,52,cs),
(404,52,o),
(374,-20,o),
(405,-20,cs),
(436,-20,o),
(484,8,o),
(503,20,cs),
(522,32,o),
(582,74,o),
(582,99,cs),
(582,124,o),
(503,119,o),
(503,164,cs),
(503,236,l)
);
}
);
width = 600;
},
{
guides = (
{
pos = (273,110);
},
{
pos = (310,409);
}
);
layerId = "D3645D82-36A4-4D10-ABA8-93DD64813C49";
shapes = (
{
closed = 1;
nodes = (
(364,165,o),
(345,110,o),
(273,110,cs),
(201,110,o),
(148,190,o),
(148,279,cs),
(148,368,o),
(208,425,o),
(276,404,cs),
(344,383,o),
(364,326,o),
(364,242,cs)
);
},
{
closed = 1;
nodes = (
(495,514,l),
(495,555,o),
(493,590,o),
(494,614,cs),
(495,641,o),
(499,656,o),
(512,656,cs),
(537,656,o),
(528,692,o),
(494,713,cs),
(460,734,o),
(380,774,o),
(366,780,cs),
(352,786,o),
(315,799,o),
(299,779,cs),
(283,759,o),
(309,734,o),
(321,723,cs),
(333,712,o),
(371,674,o),
(371,551,cs),
(371,440,l),
(336,500,o),
(260,510,o),
(173,510,cs),
(100,510,o),
(20,412,o),
(20,314,cs),
(20,116,o),
(81,-9,o),
(178,-9,cs),
(306,-9,o),
(334,52,o),
(360,52,cs),
(386,52,o),
(356,-10,o),
(387,-10,cs),
(418,-10,o),
(462,26,o),
(481,38,cs),
(500,50,o),
(564,84,o),
(564,109,cs),
(564,134,o),
(495,129,o),
(495,174,cs),
(495,246,l)
);
}
);
width = 584;
}
);
unicode = 100;
},
{
glyphname = e;
lastChange = "2024-05-30 16:33:29 +0000";
layers = (
{
background = {
shapes = (
{
closed = 1;
nodes = (
(175,230,o),
(191,230,cs),
(209,230,o),
(327,226,o),
(409,226,cs),
(474,226,o),
(483,248,o),
(483,312,cs),
(483,409,o),
(407,512,o),
(257,512,cs),
(100,512,o),
(20,362,o),
(20,233,cs),
(20,103,o),
(100,-8,o),
(287,-8,cs),
(444,-8,o),
(512,100,o),
(483,120,cs),
(455,140,o),
(423,58,o),
(299,57,cs),
(242,57,o),
(162,93,o),
(162,204,cs),
(162,223,o)
);
},
{
closed = 1;
nodes = (
(327,441,o),
(363,397,o),
(363,322,cs),
(363,303,o),
(360,286,o),
(331,286,cs),
(283,286,o),
(240,286,o),
(204,286,cs),
(181,286,o),
(169,292,o),
(172,312,cs),
(182,395,o),
(210,441,o),
(273,441,cs)
);
}
);
};
backgroundImage = {
imagePath = "copwind/copwind 3.png";
pos = (-846,-550);
scale = (2.0736,2.1971);
};
layerId = m01;
shapes = (
{
closed = 1;
nodes = (
(175,230,o),
(191,230,cs),
(209,230,o),
(327,226,o),
(409,226,cs),
(474,226,o),
(483,248,o),
(483,312,cs),
(483,409,o),
(407,512,o),
(257,512,cs),
(100,512,o),
(20,362,o),
(20,233,cs),
(20,103,o),
(100,-8,o),
(287,-8,cs),
(444,-8,o),
(512,100,o),
(483,120,cs),
(455,140,o),
(423,58,o),
(299,57,cs),
(242,57,o),
(162,93,o),
(162,204,cs),
(162,223,o)
);
},
{
closed = 1;
nodes = (
(327,441,o),
(363,397,o),
(363,322,cs),
(363,303,o),
(360,286,o),
(331,286,cs),
(283,286,o),
(240,286,o),
(204,286,cs),
(181,286,o),
(172,290,o),
(172,310,cs),
(172,376,o),
(202,441,o),
(273,441,cs)
);
}
);
width = 518;
},
{
guides = (
{
angle = 106.0001;
pos = (253,257);
},
{
pos = (284,288);
}
);
layerId = "D3645D82-36A4-4D10-ABA8-93DD64813C49";
shapes = (
{
closed = 1;
nodes = (
(181,208,o),
(196,212,cs),
(214,216,o),
(329,241,o),
(409,261,cs),
(472,277,o),
(475,300,o),
(460,362,cs),
(436,456,o),
(338,538,o),
(192,502,cs),
(40,464,o),
(-2,299,o),
(30,173,cs),
(61,47,o),
(165,-41,o),
(347,4,cs),
(499,42,o),
(539,163,o),
(506,176,cs),
(474,188,o),
(463,101,o),
(343,70,cs),
(288,56,o),
(201,72,o),
(174,180,cs),
(170,198,o)
);
},
{
closed = 1;
nodes = (
(277,450,o),
(323,416,o),
(341,343,cs),
(345,324,o),
(347,307,o),
(319,300,cs),
(272,289,o),
(230,278,o),
(195,269,cs),
(173,264,o),
(163,266,o),
(158,285,cs),
(142,349,o),
(156,419,o),
(225,437,cs)
);
}
);
width = 537;
},
{
associatedMasterId = m01;
background = {
shapes = (
{
closed = 1;
nodes = (
(175,230,o),
(191,230,cs),
(209,230,o),
(327,226,o),
(409,226,cs),
(474,226,o),
(483,248,o),
(483,312,cs),
(483,409,o),
(407,512,o),
(257,512,cs),
(100,512,o),
(20,362,o),
(20,233,cs),
(20,103,o),
(100,-8,o),
(287,-8,cs),
(444,-8,o),
(512,100,o),
(483,120,cs),
(455,140,o),
(423,58,o),
(299,57,cs),
(242,57,o),
(162,93,o),
(162,204,cs),
(162,223,o)
);
},
{
closed = 1;
nodes = (
(327,441,o),
(363,397,o),
(363,322,cs),
(363,303,o),
(360,286,o),
(331,286,cs),
(283,286,o),
(240,286,o),
(204,286,cs),
(181,286,o),
(169,292,o),
(172,312,cs),
(182,395,o),
(210,441,o),
(273,441,cs)
);
}
);
};
backgroundImage = {
imagePath = "copwind/copwind 3.png";
pos = (-846,-550);
scale = (2.0736,2.1971);
};
layerId = "A100ADAD-669A-45BB-B9B8-DB33C98B54B4";
name = "May 24, 24 at 17:12";
shapes = (
{
closed = 1;
nodes = (
(175,320,o),
(191,320,cs),
(209,320,o),
(327,316,o),
(409,316,cs),
(474,316,o),
(483,338,o),
(483,402,cs),
(483,499,o),
(407,512,o),
(257,512,cs),
(100,512,o),
(20,362,o),
(20,233,cs),
(20,103,o),
(100,-8,o),
(287,-8,cs),
(444,-8,o),
(512,100,o),
(483,120,cs),
(455,140,o),
(423,58,o),
(299,57,cs),
(242,57,o),
(162,183,o),
(162,294,cs),
(162,313,o)
);
},
{
closed = 1;
nodes = (
(327,441,o),
(363,487,o),
(363,412,cs),
(363,393,o),
(360,376,o),
(331,376,cs),
(283,376,o),
(240,376,o),
(204,376,cs),
(181,376,o),
(172,380,o),
(172,400,cs),
(172,466,o),
(202,441,o),
(273,441,cs)
);
}
);
width = 518;
}
);
unicode = 101;
},
{
glyphname = f;
lastChange = "2024-05-30 15:34:31 +0000";
layers = (
{
layerId = m01;
shapes = (
{
closed = 1;
nodes = (
(94,299,l),
(94,226,ls),
(94,171,o),
(89,92,o),
(74,68,cs),
(62,49,o),
(54,32,o),
(54,17,cs),
(54,-2,o),
(63,-5,o),
(82,-5,cs),
(101,-5,o),
(185,-5,o),
(220,-5,cs),
(245,-5,o),
(256,-2,o),
(256,17,cs),
(256,32,o),
(251,49,o),
(237,68,cs),
(220,91,o),
(216,171,o),
(216,226,cs),
(216,299,l)
);
},
{
closed = 1;
nodes = (
(216,410,ls),
(216,425,o),
(221,430,o),
(234,430,cs),
(290,430,ls),
(299,430,o),
(307,455,o),
(307,470,cs),
(307,485,o),
(299,510,o),
(290,510,cs),
(228,510,ls),
(214,510,o),
(209,516,o),
(209,530,cs),
(209,637,o),
(210,659,o),
(222,674,cs),
(239,694,o),
(263,698,o),
(278,695,c),
(262,684,o),
(249,666,o),
(249,643,cs),
(249,624,o),
(280,592,o),
(318,592,cs),
(358,592,o),
(396,619,o),
(396,658,cs),
(396,712,o),
(329,780,o),
(254,780,cs),
(155,780,o),
(99,710,o),
(92,660,cs),
(86,616,o),
(87,525,o),
(87,511,c),
(31,511,ls),
(24,511,o),
(20,484,o),
(20,471,cs),
(20,458,o),
(24,431,o),
(34,431,cs),
(71,431,l),
(81,431,o),
(94,427,o),
(94,414,cs),
(94,290,l),
(216,290,l)
);
}
);
width = 376;
},
{
background = {
shapes = (
{
closed = 1;
nodes = (
(216,722,o),
(183,684,o),
(204,650,cs),
(221,623,o),
(248,626,o),
(290,648,cs),
(333,670,o),
(352,705,o),
(337,732,cs),
(316,770,o),
(270,760,o),
(245,743,cs)
);
}
);
};
layerId = "D3645D82-36A4-4D10-ABA8-93DD64813C49";
shapes = (
{
closed = 1;
nodes = (
(96,299,l),
(96,226,ls),
(96,171,o),
(89,92,o),
(74,68,cs),
(62,49,o),
(54,32,o),
(54,17,cs),
(54,-2,o),
(63,-5,o),
(82,-5,cs),
(101,-5,o),
(185,-5,o),
(220,-5,cs),
(245,-5,o),
(256,-2,o),
(256,17,cs),
(256,32,o),
(251,49,o),
(237,68,cs),
(220,91,o),
(216,171,o),
(216,226,cs),
(216,299,l)
);
},
{
closed = 1;
nodes = (
(216,419,ls),
(216,434,o),
(221,439,o),
(234,439,cs),
(280,439,ls),
(297,439,o),
(307,447,o),
(307,468,cs),
(307,490,o),
(297,509,o),
(280,509,cs),
(214,509,l),
(205,531,o),
(193,552,o),
(174,567,cs),
(153,584,o),
(130,607,o),
(130,648,cs),
(130,694,o),
(182,720,o),
(218,687,c),
(202,676,o),
(197,657,o),
(197,640,cs),
(197,624,o),
(209,601,o),
(240,601,cs),
(297,601,o),
(342,636,o),
(342,681,cs),
(342,728,o),
(275,780,o),
(217,780,cs),
(113,780,o),
(38,744,o),
(38,660,cs),
(38,566,o),
(82,533,o),
(94,510,c),
(41,510,l),
(29,510,o),
(20,490,o),
(20,469,cs),
(20,450,o),
(30,440,o),
(44,440,cs),
(71,440,l),
(81,440,o),
(96,436,o),
(96,423,cs),
(96,290,l),
(216,290,l)
);
}
);
width = 339;
},
{
associatedMasterId = m01;
layerId = "5E4332CB-F13C-4E57-89FF-45D07E52C47B";
name = "May 24, 24 at 17:11";
shapes = (
{
closed = 1;
nodes = (
(94,299,l),
(94,226,ls),
(94,171,o),
(89,92,o),
(74,68,cs),
(62,49,o),
(54,32,o),
(54,17,cs),
(54,-2,o),
(63,-5,o),
(82,-5,cs),
(101,-5,o),
(185,-5,o),
(220,-5,cs),
(245,-5,o),
(256,-2,o),
(256,17,cs),
(256,32,o),
(251,49,o),
(237,68,cs),
(220,91,o),
(216,171,o),
(216,226,cs),
(216,299,l)
);
},
{
closed = 1;
nodes = (
(216,480,ls),
(216,495,o),
(221,500,o),
(234,500,cs),
(290,500,ls),
(299,500,o),
(307,505,o),
(307,520,cs),
(307,535,o),
(299,540,o),
(290,540,cs),
(228,540,ls),
(214,540,o),
(209,546,o),
(209,560,cs),
(209,667,o),
(210,659,o),
(222,674,cs),
(239,694,o),
(263,698,o),
(278,695,c),
(262,684,o),
(249,666,o),
(249,643,cs),
(249,624,o),
(280,592,o),
(318,592,cs),
(358,592,o),
(396,619,o),
(396,658,cs),
(396,712,o),
(329,780,o),
(254,780,cs),
(155,780,o),
(99,710,o),
(92,660,cs),
(86,616,o),
(87,555,o),
(87,541,c),
(31,541,ls),
(24,541,o),
(20,534,o),
(20,521,cs),
(20,508,o),
(24,501,o),
(34,501,cs),
(71,501,l),
(81,501,o),
(94,497,o),
(94,484,cs),
(94,290,l),
(216,290,l)
);
}
);
width = 376;
}
);
metricLeft = n;
metricRight = "-n";
unicode = 102;
},
{
glyphname = g;
lastChange = "2024-05-30 16:33:35 +0000";
layers = (
{
layerId = m01;
shapes = (
{
closed = 1;
nodes = (
(149,510,o),
(60,442,o),
(60,311,cs),
(60,252,o),
(86,195,o),
(115,181,c),
(74,171,o),
(37,157,o),
(37,100,cs),
(37,40,o),
(77,27,o),
(95,15,c),
(51,3,o),
(20,-23,o),
(20,-77,cs),
(20,-131,o),
(110,-207,o),
(241,-207,cs),
(417,-207,o),
(549,-183,o),
(549,-53,cs),
(549,51,o),
(514,91,o),
(455,91,cs),
(387,91,o),
(311,69,o),
(244,69,cs),
(177,69,o),
(124,100,o),
(124,123,cs),
(124,146,o),
(157,145,o),
(175,133,c),
(198,119,o),
(239,112,o),
(284,112,cs),
(408,112,o),
(513,190,o),
(513,300,cs),
(513,393,o),
(450,399,o),
(450,436,cs),
(450,477,o),
(544,416,o),
(564,451,cs),
(584,486,o),
(566,539,o),
(550,539,cs),
(534,539,o),
(414,483,o),
(393,482,c),
(372,481,o),
(355,510,o),
(286,510,cs)
);
},
{
closed = 1;
nodes = (
(413,3,o),
(465,-18,o),
(465,-55,cs),
(465,-111,o),
(405,-130,o),
(284,-130,cs),
(208,-130,o),
(146,-104,o),
(145,-43,cs),
(144,-27,o),
(171,-19,o),
(206,-11,cs),
(236,-4,o),
(290,3,o),
(330,3,cs)
);
},
{
closed = 1;
nodes = (
(347,439,o),
(392,390,o),
(392,299,cs),
(392,206,o),
(347,185,o),
(286,185,cs),
(227,185,o),
(181,206,o),
(181,299,cs),
(181,390,o),
(227,439,o),
(286,439,cs)
);
}
);
width = 563;
},
{
layerId = "D3645D82-36A4-4D10-ABA8-93DD64813C49";
shapes = (
{
closed = 1;
nodes = (
(130,514,o),
(44,442,o),
(44,338,cs),
(44,272,o),
(67,209,o),
(96,195,c),
(60,186,o),
(32,149,o),
(32,110,cs),
(32,51,o),
(44,22,o),
(67,11,c),
(33,-11,o),
(21,-32,o),
(20,-73,cs),
(20,-162,o),
(124,-212,o),
(309,-212,cs),
(434,-212,o),
(512,-152,o),
(512,-72,cs),
(512,28,o),
(492,60,o),
(450,76,cs),
(394,98,o),
(292,80,o),
(225,80,cs),
(158,80,o),
(100,90,o),
(100,123,cs),
(100,146,o),
(114,152,o),
(132,152,c),
(159,136,o),
(218,108,o),
(276,108,cs),
(311,108,o),
(498,121,o),
(498,300,cs),
(498,383,o),
(459,420,o),
(441,457,cs),
(406,529,o),
(462,472,o),
(503,472,cs),
(555,472,o),
(546,590,o),
(459,590,cs),
(410,590,o),
(364,549,o),
(374,495,c),
(353,515,o),
(301,514,o),
(267,514,cs)
);
},
{
closed = 1;
nodes = (
(368,-11,o),
(434,-11,o),
(422,-89,cs),
(413,-145,o),
(317,-139,o),
(262,-126,cs),
(202,-110,o),
(100,-80,o),
(116,-28,cs),
(126,5,o),
(159,-1,o),
(196,-1,cs),
(231,-1,o),
(289,0,o),
(325,-5,cs)
);
},
{
closed = 1;
nodes = (
(139,365,o),
(178,427,o),
(226,438,cs),
(274,450,o),
(354,410,o),
(381,326,cs),
(409,231,o),
(354,198,o),
(306,186,cs),
(259,175,o),
(194,186,o),
(165,280,cs)
);
}
);
width = 532;
},
{
associatedMasterId = m01;
layerId = "8B07D15F-5FAA-47F4-83E5-6785DBCA907B";
name = "May 17, 24 at 17:27";
shapes = (
{
closed = 1;
nodes = (
(193,386,o),
(239,444,o),
(289,444,cs),
(369,444,o),
(402,355,o),
(402,303,cs),
(402,235,o),
(388,175,o),
(289,175,cs),
(208,175,o),
(193,235,o),
(193,303,cs)
);
},
{
closed = 1;
nodes = (
(161,514,o),
(75,432,o),
(75,301,cs),
(75,242,o),
(98,185,o),
(127,171,c),
(86,161,o),
(63,147,o),
(63,79,cs),
(63,44,o),
(75,35,o),
(87,19,c),
(65,13,o),
(32,-19,o),
(32,-73,cs),
(32,-127,o),
(122,-203,o),
(253,-203,cs),
(384,-203,o),
(521,-168,o),
(521,-69,cs),
(521,30,o),
(465,85,o),
(427,85,cs),
(389,85,o),
(323,73,o),
(256,73,cs),
(189,73,o),
(136,90,o),
(136,113,cs),
(136,136,o),
(169,123,o),
(187,123,c),
(216,109,o),
(251,102,o),
(286,102,cs),
(420,102,o),
(515,180,o),
(515,290,cs),
(515,383,o),
(462,403,o),
(462,440,cs),
(462,481,o),
(496,420,o),
(516,455,cs),
(536,490,o),
(518,513,o),
(502,513,cs),
(486,513,o),
(426,487,o),
(405,486,c),
(384,485,o),
(332,514,o),
(298,514,cs)
);
},
{
closed = 1;
nodes = (
(353,-5,o),
(447,-10,o),
(447,-51,cs),
(447,-118,o),
(352,-130,o),
(296,-126,cs),
(236,-122,o),
(130,-95,o),
(137,-39,cs),
(143,11,o),
(243,-5,o),
(311,-5,cs)
);
}
);
width = 600;
}
);
metricLeft = n;
metricRight = n;
unicode = 103;
},
{
glyphname = h;
lastChange = "2024-05-30 15:37:43 +0000";
layers = (
{
layerId = m01;
shapes = (
{
closed = 1;
nodes = (
(482,-5,ls),
(507,-5,o),
(514,0,o),
(514,19,cs),
(514,34,o),
(509,49,o),
(495,68,cs),
(478,91,o),
(473,164,o),
(473,299,cs),
(473,400,ls),
(473,456,o),
(482,510,o),
(402,510,cs),
(322,510,o),
(253,441,o),
(184,406,c),
(184,313,l),
(197,313,l),
(197,325,o),
(289,389,o),
(319,389,cs),
(349,389,o),
(354,349,o),
(353,278,cs),
(351,159,ls),
(350,119,o),
(341,83,o),
(332,68,cs),
(320,49,o),
(312,32,o),
(312,17,cs),
(312,-2,o),
(320,-5,o),
(339,-5,cs)
);
},
{
closed = 1;
nodes = (
(94,-5,o),
(178,-5,o),
(213,-5,cs),
(238,-5,o),
(249,-2,o),
(249,17,cs),
(249,32,o),
(244,49,o),
(230,68,cs),
(213,91,o),
(209,171,o),
(209,226,cs),
(209,309,l),
(87,299,l),
(87,226,ls),
(87,171,o),
(82,92,o),
(67,68,cs),
(55,49,o),
(47,32,o),
(47,17,cs),
(47,-2,o),
(56,-5,o),
(75,-5,cs)
);
},
{
closed = 1;
nodes = (
(209,119,l),
(208,705,ls),
(208,761,o),
(204,770,o),
(186,770,cs),
(171,770,o),
(159,764,o),
(147,756,cs),
(54,695,ls),
(36,683,o),
(20,678,o),
(20,653,cs),
(20,639,o),
(38,636,o),
(56,623,cs),
(81,606,o),
(87,582,o),
(87,552,c),
(87,119,l)
);
}
);
width = 534;
},
{
layerId = "D3645D82-36A4-4D10-ABA8-93DD64813C49";
shapes = (
{
closed = 1;
nodes = (
(552,-5,ls),
(577,-5,o),
(588,-2,o),
(588,17,cs),
(588,32,o),
(573,49,o),
(559,68,cs),
(542,91,o),
(523,169,o),
(487,299,cs),
(459,400,ls),
(444,454,o),
(442,510,o),
(362,510,cs),
(282,510,o),
(253,471,o),
(184,436,c),
(184,323,l),
(197,323,l),
(197,335,o),
(249,379,o),
(319,379,cs),
(349,379,o),
(352,347,o),
(371,278,cs),
(403,159,ls),
(414,120,o),
(420,83,o),
(411,68,cs),
(399,49,o),
(381,32,o),
(381,17,cs),
(381,-2,o),
(390,-5,o),
(409,-5,cs)
);
},
{
closed = 1;
nodes = (
(94,-5,o),
(178,-5,o),
(213,-5,cs),
(238,-5,o),
(249,-2,o),
(249,17,cs),
(249,32,o),
(244,49,o),
(230,68,cs),
(213,91,o),
(209,171,o),
(209,226,cs),
(209,299,l),
(87,299,l),
(87,226,ls),
(87,171,o),
(82,92,o),
(67,68,cs),
(55,49,o),
(47,32,o),
(47,17,cs),
(47,-2,o),
(56,-5,o),
(75,-5,cs)
);
},
{
closed = 1;
nodes = (
(209,119,l),
(209,715,ls),
(209,771,o),
(204,780,o),
(186,780,cs),
(171,780,o),
(159,774,o),
(147,766,cs),
(54,705,ls),
(36,693,o),
(20,688,o),
(20,663,cs),
(20,649,o),
(38,646,o),
(56,633,cs),
(81,616,o),
(87,592,o),
(87,562,c),
(87,119,l)
);
}
);
width = 598;
},
{
associatedMasterId = "D3645D82-36A4-4D10-ABA8-93DD64813C49";
layerId = "4BFE9F69-D0E7-4B67-83BB-47D9FE782049";
name = "May 24, 24 at 13:09";
shapes = (
{
closed = 1;
nodes = (
(562,-5,ls),
(587,-5,o),
(598,-2,o),
(598,17,cs),
(598,32,o),
(583,49,o),
(569,68,cs),
(552,91,o),
(533,169,o),
(497,299,cs),
(469,400,ls),
(454,454,o),
(452,510,o),
(372,510,cs),
(292,510,o),
(253,471,o),
(184,436,c),
(184,323,l),
(197,323,l),
(197,335,o),
(259,379,o),
(329,379,cs),
(359,379,o),
(362,347,o),
(381,278,cs),
(413,159,ls),
(424,120,o),
(430,83,o),
(421,68,cs),
(409,49,o),
(391,32,o),
(391,17,cs),
(391,-2,o),
(400,-5,o),
(419,-5,cs)
);
},
{
closed = 1;
nodes = (
(94,-5,o),
(178,-5,o),
(213,-5,cs),
(238,-5,o),
(249,-2,o),
(249,17,cs),
(249,32,o),
(244,49,o),
(230,68,cs),
(213,91,o),
(209,171,o),
(209,226,cs),
(209,299,l),
(87,299,l),
(87,226,ls),
(87,171,o),
(82,92,o),
(67,68,cs),
(55,49,o),
(47,32,o),
(47,17,cs),
(47,-2,o),
(56,-5,o),
(75,-5,cs)
);
},
{
closed = 1;
nodes = (
(209,119,l),
(207,567,ls),
(206,743,o),
(285,752,o),
(285,784,cs),
(285,809,o),
(249,817,o),
(227,806,cs),
(124,755,ls),
(88,738,o),
(53,714,o),
(53,689,cs),
(53,665,o),
(86,690,o),
(86,653,cs),
(86,626,o),
(87,592,o),
(87,562,c),
(87,119,l)
);
}
);
width = 598;
}
);
unicode = 104;
},
{
glyphname = i;
lastChange = "2024-05-30 16:23:33 +0000";
layers = (
{
layerId = m01;
shapes = (
{
closed = 1;
nodes = (
(95,-5,o),
(179,-5,o),
(214,-5,cs),
(239,-5,o),
(250,-2,o),
(250,17,cs),
(250,32,o),
(245,49,o),
(231,68,cs),
(214,91,o),
(210,171,o),
(210,226,cs),
(210,299,l),
(88,299,l),
(88,226,ls),
(88,171,o),
(83,92,o),
(68,68,cs),
(56,49,o),
(48,32,o),
(48,17,cs),
(48,-2,o),
(57,-5,o),
(76,-5,cs)
);
},
{
closed = 1;
nodes = (
(210,119,l),
(209,445,ls),
(209,501,o),
(205,510,o),
(187,510,cs),
(172,510,o),
(160,504,o),
(148,496,cs),
(55,435,ls),
(37,423,o),
(21,418,o),
(21,393,cs),
(21,379,o),
(39,376,o),
(57,363,cs),
(82,346,o),
(88,322,o),
(88,292,c),
(88,119,l)
);
},
{
closed = 1;
nodes = (
(20,581,o),
(70,557,o),
(122,557,cs),
(177,557,o),
(225,581,o),
(225,628,cs),
(225,679,o),
(177,709,o),
(122,709,cs),
(70,709,o),
(20,679,o),
(20,628,cs)
);
}
);
width = 270;
},
{
guides = (
{
angle = 105;
pos = (132,586);
}
);
layerId = "D3645D82-36A4-4D10-ABA8-93DD64813C49";
shapes = (
{
closed = 1;
nodes = (
(124,-5,o),
(208,-5,o),
(243,-5,cs),
(268,-5,o),
(279,-2,o),
(279,17,cs),
(279,32,o),
(274,49,o),
(260,68,cs),
(243,91,o),
(239,171,o),
(239,226,cs),
(239,299,l),
(119,299,l),
(119,226,ls),
(119,171,o),
(112,92,o),
(97,68,cs),
(85,49,o),
(77,32,o),
(77,17,cs),
(77,-2,o),
(86,-5,o),
(105,-5,cs)
);
},
{
closed = 1;
nodes = (
(239,119,l),
(238,445,ls),
(238,501,o),
(234,510,o),
(216,510,cs),
(201,510,o),
(189,504,o),
(177,496,cs),
(84,435,ls),
(66,423,o),
(50,418,o),
(50,393,cs),
(50,379,o),
(68,376,o),
(86,363,cs),
(111,346,o),
(119,322,o),
(119,292,c),
(119,119,l)
);
},
{
closed = 1;
nodes = (
(69,673,o),
(23,619,o),
(53,571,cs),
(77,533,o),
(114,537,o),
(174,568,cs),
(234,599,o),
(261,648,o),
(240,686,cs),
(210,740,o),
(146,726,o),
(111,702,cs)
);
}
);
width = 329;
}
);
metricLeft = n;
metricRight = n;
unicode = 105;
},
{
glyphname = k;
lastChange = "2024-05-30 15:37:00 +0000";
layers = (
{
background = {
shapes = (
{
closed = 1;
nodes = (
(209,164,l),
(208,720,ls),
(208,776,o),
(204,785,o),
(186,785,cs),
(171,785,o),
(159,779,o),
(147,771,cs),
(54,710,ls),
(36,698,o),
(20,693,o),
(20,673,cs),
(20,654,o),
(38,651,o),
(56,638,cs),
(81,621,o),
(87,597,o),
(87,567,c),
(87,164,l)
);
},
{
closed = 1;
nodes = (
(94,-5,o),
(178,-5,o),
(213,-5,cs),
(238,-5,o),
(249,-2,o),
(249,17,cs),
(249,32,o),
(244,49,o),
(230,68,cs),
(213,91,o),
(209,171,o),
(209,226,cs),
(209,299,l),
(87,299,l),
(87,226,ls),
(87,171,o),
(82,92,o),
(67,68,cs),
(55,49,o),
(47,32,o),
(47,17,cs),
(47,-2,o),
(56,-5,o),
(75,-5,cs)
);
},
{
closed = 1;
nodes = (
(396,394,l),
(402,398,o),
(468,437,o),
(483,447,cs),
(501,459,o),
(513,472,o),
(513,483,cs),
(513,505,o),
(498,510,o),
(479,510,cs),
(327,510,l),
(308,510,o),
(286,506,o),
(286,494,cs),
(286,482,o),
(303,475,o),
(303,465,cs),
(303,455,o),
(261,435,o),
(254,431,cs),
(156,378,l),
(176,275,l)
);
},
{
closed = 1;
nodes = (
(225,317,l),
(312,159,ls),
(336,115,o),
(355,76,o),
(355,66,cs),
(355,56,o),
(328,38,o),
(328,26,cs),
(328,14,o),
(339,-2,o),
(369,-2,c),
(521,-2,ls),
(540,-2,o),
(552,3,o),
(552,25,cs),
(552,54,o),
(511,68,o),
(493,80,cs),
(478,90,o),
(443,164,o),
(437,168,c),
(317,368,l)
);
}
);
};
layerId = m01;
shapes = (
{
closed = 1;
nodes = (
(214,-5,ls),
(239,-5,o),
(250,-2,o),
(250,17,cs),
(250,32,o),
(245,49,o),
(231,68,cs),
(217,87,o),
(206,224,o),
(206,258,c),
(234,272,o),
(291,208,o),
(308,169,cs),
(321,140,o),
(351,77,o),
(351,67,cs),
(351,57,o),
(325,36,o),
(325,24,cs),
(325,3,o),
(348,-2,o),
(378,-2,cs),
(518,-2,ls),
(537,-2,o),
(549,3,o),
(549,25,cs),
(549,54,o),
(506,55,o),
(441,174,cs),
(412,227,o),
(352,313,o),
(333,341,cs),
(321,359,o),
(402,398,o),
(428,413,cs),
(453,427,o),
(513,463,o),
(513,489,cs),
(513,511,o),
(501,510,o),
(479,510,cs),
(454,510,o),
(361,509,o),
(341,509,cs),
(316,509,o),
(286,515,o),
(286,494,cs),
(286,471,o),
(303,482,o),
(303,465,cs),
(303,450,o),
(289,425,o),
(254,377,cs),
(239,355,o),
(230,347,o),
(210,336,c),
(209,571,ls),
(209,624,o),
(209,665,o),
(209,676,cs),
(209,692,o),
(209,727,o),
(209,752,cs),
(209,778,o),
(206,785,o),
(186,785,cs),
(152,785,o),
(90,736,o),
(71,724,cs),
(51,712,o),
(20,698,o),
(20,673,cs),
(20,653,o),
(88,621,o),
(89,594,cs),
(90,570,o),
(88,525,o),
(88,484,cs),
(88,226,ls),
(88,171,o),
(83,92,o),
(68,68,cs),
(56,49,o),
(48,32,o),
(48,17,cs),
(48,-2,o),
(57,-5,o),
(76,-5,cs)
);
}
);
width = 600;
},
{
layerId = "D3645D82-36A4-4D10-ABA8-93DD64813C49";
shapes = (
{
closed = 1;
nodes = (
(227,-5,ls),
(252,-5,o),
(263,-2,o),
(263,17,cs),
(263,32,o),
(258,49,o),
(244,68,cs),
(230,87,o),
(225,146,o),
(223,196,cs),
(221,244,o),
(301,191,o),
(318,153,cs),
(339,107,o),
(342,79,o),
(342,69,cs),
(342,59,o),
(324,33,o),
(324,21,cs),
(324,0,o),
(353,-2,o),
(383,-2,cs),
(535,-2,ls),
(554,-2,o),
(566,3,o),
(566,25,cs),
(566,54,o),
(525,68,o),
(479,99,cs),
(425,135,o),
(360,252,o),
(341,276,cs),
(327,293,o),
(306,312,o),
(306,338,cs),
(306,381,o),
(338,392,o),
(378,362,cs),
(399,346,o),
(450,282,o),
(490,313,cs),
(522,338,o),
(507,403,o),
(487,438,cs),
(462,482,o),
(420,519,o),
(378,519,cs),
(334,519,o),
(299,490,o),
(280,467,cs),
(267,452,o),
(255,420,o),
(244,398,cs),
(240,390,o),
(231,377,o),
(223,362,c),
(222,571,ls),
(222,694,o),
(260,732,o),
(272,743,cs),
(284,754,o),
(310,779,o),
(294,799,cs),
(278,819,o),
(241,806,o),
(227,800,cs),
(213,794,o),
(132,754,o),
(98,733,cs),
(64,712,o),
(55,676,o),
(80,676,cs),
(93,676,o),
(101,661,o),
(102,634,cs),
(103,610,o),
(101,575,o),
(101,534,cs),
(101,226,ls),
(101,171,o),
(96,92,o),
(81,68,cs),
(69,49,o),
(61,32,o),
(61,17,cs),
(61,-2,o),
(70,-5,o),
(89,-5,cs)
);
}
);
width = 600;
},
{
associatedMasterId = m01;
background = {
shapes = (
{
closed = 1;
nodes = (
(209,164,l),
(208,720,ls),
(208,776,o),
(204,785,o),
(186,785,cs),
(171,785,o),
(159,779,o),
(147,771,cs),
(54,710,ls),
(36,698,o),
(20,693,o),
(20,673,cs),
(20,654,o),
(38,651,o),
(56,638,cs),
(81,621,o),
(87,597,o),
(87,567,c),
(87,164,l)
);
},
{
closed = 1;
nodes = (
(94,-5,o),
(178,-5,o),
(213,-5,cs),
(238,-5,o),
(249,-2,o),
(249,17,cs),
(249,32,o),
(244,49,o),
(230,68,cs),
(213,91,o),
(209,171,o),
(209,226,cs),
(209,299,l),
(87,299,l),
(87,226,ls),
(87,171,o),
(82,92,o),
(67,68,cs),
(55,49,o),
(47,32,o),
(47,17,cs),
(47,-2,o),
(56,-5,o),
(75,-5,cs)
);
},
{
closed = 1;
nodes = (
(396,394,l),
(402,398,o),
(468,437,o),
(483,447,cs),
(501,459,o),
(513,472,o),
(513,483,cs),
(513,505,o),
(498,510,o),
(479,510,cs),
(327,510,l),
(308,510,o),
(286,506,o),
(286,494,cs),
(286,482,o),
(303,475,o),
(303,465,cs),
(303,455,o),
(261,435,o),
(254,431,cs),
(156,378,l),
(176,275,l)
);
},
{
closed = 1;
nodes = (
(225,317,l),
(312,159,ls),
(336,115,o),
(355,76,o),
(355,66,cs),
(355,56,o),
(328,38,o),
(328,26,cs),
(328,14,o),
(339,-2,o),
(369,-2,c),
(521,-2,ls),
(540,-2,o),
(552,3,o),
(552,25,cs),
(552,54,o),
(511,68,o),
(493,80,cs),
(478,90,o),
(443,164,o),
(437,168,c),
(317,368,l)
);
}
);
};
layerId = "5A132AA2-E4E3-447E-AB07-3173B4CA367C";
name = "May 24, 24 at 17:11";
shapes = (
{
closed = 1;
nodes = (
(214,-5,ls),
(239,-5,o),
(250,-2,o),
(250,17,cs),
(250,32,o),
(245,49,o),
(231,68,cs),
(217,87,o),
(178,224,o),
(206,238,cs),
(234,252,o),
(291,208,o),
(308,169,cs),
(321,140,o),
(351,77,o),
(351,67,cs),
(351,57,o),
(325,36,o),
(325,24,cs),
(325,3,o),
(348,-2,o),
(378,-2,cs),
(518,-2,ls),
(537,-2,o),
(549,3,o),
(549,25,cs),
(549,54,o),
(506,55,o),
(441,174,cs),
(412,227,o),
(352,313,o),
(333,341,cs),
(321,359,o),
(402,398,o),
(428,413,cs),
(453,427,o),
(513,463,o),
(513,489,cs),
(513,511,o),
(501,510,o),
(479,510,cs),
(454,510,o),
(361,509,o),
(341,509,cs),
(316,509,o),
(286,515,o),
(286,494,cs),
(286,471,o),
(303,482,o),
(303,465,c),
(210,336,l),
(209,571,ls),
(209,624,o),
(209,665,o),
(209,676,cs),
(209,692,o),
(209,727,o),
(209,752,cs),
(209,778,o),
(206,785,o),
(186,785,cs),
(152,785,o),
(90,736,o),
(71,724,cs),
(51,712,o),
(20,698,o),
(20,673,cs),
(20,653,o),
(88,621,o),
(89,594,cs),
(90,570,o),
(88,525,o),
(88,484,cs),
(88,226,ls),
(88,171,o),
(83,92,o),
(68,68,cs),
(56,49,o),
(48,32,o),
(48,17,cs),
(48,-2,o),
(57,-5,o),
(76,-5,cs)
);
}
);
width = 600;
}
);
unicode = 107;
},
{
glyphname = l;
lastChange = "2024-05-30 16:20:44 +0000";
layers = (
{
background = {
shapes = (
{
closed = 1;
nodes = (
(213,-5,ls),
(238,-5,o),
(249,-2,o),
(249,17,cs),
(249,32,o),
(244,49,o),
(230,68,cs),
(213,91,o),
(209,171,o),
(209,226,cs),
(208,840,ls),
(208,896,o),
(204,905,o),
(186,905,cs),
(171,905,o),
(159,899,o),
(147,891,cs),
(54,830,ls),
(36,818,o),
(20,813,o),
(20,793,cs),
(20,774,o),
(38,771,o),
(56,758,cs),
(81,741,o),
(87,717,o),
(87,687,cs),
(87,226,ls),
(87,171,o),
(82,92,o),
(67,68,cs),
(55,49,o),
(47,32,o),
(47,17,cs),
(47,-2,o),
(56,-5,o),
(75,-5,cs)
);
}
);
};
layerId = m01;
shapes = (
{
closed = 1;
nodes = (
(213,-5,ls),
(238,-5,o),
(249,-2,o),
(249,17,cs),
(249,32,o),
(244,49,o),
(230,68,cs),
(213,91,o),
(209,171,o),
(209,226,cs),
(208,840,ls),
(208,896,o),
(204,905,o),
(186,905,cs),
(171,905,o),
(159,899,o),
(147,891,cs),
(54,830,ls),
(36,818,o),
(20,813,o),
(20,793,cs),
(20,774,o),
(38,771,o),
(56,758,cs),
(81,741,o),
(87,717,o),
(87,687,cs),
(87,226,ls),
(87,171,o),
(82,92,o),
(67,68,cs),
(55,49,o),
(47,32,o),
(47,17,cs),
(47,-2,o),
(56,-5,o),
(75,-5,cs)
);
}
);
width = 269;
},
{
layerId = "D3645D82-36A4-4D10-ABA8-93DD64813C49";
shapes = (
{
closed = 1;
nodes = (
(213,-5,ls),
(238,-5,o),
(249,-2,o),
(249,17,cs),
(249,32,o),
(244,49,o),
(230,68,cs),
(213,91,o),
(209,171,o),
(209,226,cs),
(208,840,ls),
(208,896,o),
(204,905,o),
(186,905,cs),
(171,905,o),
(159,899,o),
(147,891,cs),
(54,830,ls),
(36,818,o),
(20,813,o),
(20,793,cs),
(20,774,o),
(38,771,o),
(56,758,cs),
(81,741,o),
(87,717,o),
(87,687,cs),
(87,226,ls),
(87,171,o),
(82,92,o),
(67,68,cs),
(55,49,o),
(47,32,o),
(47,17,cs),
(47,-2,o),
(56,-5,o),
(75,-5,cs)
);
}
);
width = 267;
},
{
associatedMasterId = m01;
layerId = "2CAF3351-F7B7-490A-BE66-FA283DF2CDEF";
name = "May 24, 24 at 17:20";
shapes = (
{
closed = 1;
nodes = (
(209,164,l),
(208,706,ls),
(208,762,o),
(204,771,o),
(186,771,cs),
(171,771,o),
(159,765,o),
(147,757,cs),
(54,696,ls),
(36,684,o),
(20,679,o),
(20,659,cs),
(20,640,o),
(38,637,o),
(56,624,cs),
(81,607,o),
(87,583,o),
(87,553,c),
(87,164,l)
);
},
{
closed = 1;
nodes = (
(94,-5,o),
(178,-5,o),
(213,-5,cs),
(238,-5,o),
(249,-2,o),
(249,17,cs),
(249,32,o),
(244,49,o),
(230,68,cs),
(213,91,o),
(209,171,o),
(209,226,cs),
(209,299,l),
(87,299,l),
(87,226,ls),
(87,171,o),
(82,92,o),
(67,68,cs),
(55,49,o),
(47,32,o),
(47,17,cs),
(47,-2,o),
(56,-5,o),
(75,-5,cs)
);
}
);
width = 269;
}
);
metricLeft = n;
metricRight = n;
unicode = 108;
},
{
glyphname = m;
lastChange = "2024-05-30 15:35:16 +0000";
layers = (
{
layerId = m01;
shapes = (
{
closed = 1;
nodes = (
(729,-5,ls),
(754,-5,o),
(761,0,o),
(761,19,cs),
(761,34,o),
(756,49,o),
(742,68,cs),
(725,91,o),
(720,164,o),
(720,299,cs),
(720,400,ls),
(720,456,o),
(729,510,o),
(649,510,cs),
(569,510,o),
(530,441,o),
(441,406,c),
(441,303,l),
(454,303,l),
(474,315,o),
(536,379,o),
(566,379,cs),
(596,379,o),
(601,349,o),
(600,278,cs),
(598,159,ls),
(597,119,o),
(588,83,o),
(579,68,cs),
(567,49,o),
(559,32,o),
(559,17,cs),
(559,-2,o),
(567,-5,o),
(586,-5,cs)
);
},
{
closed = 1;
nodes = (
(94,-5,o),
(178,-5,o),
(213,-5,cs),
(238,-5,o),
(249,-2,o),
(249,17,cs),
(249,32,o),
(244,49,o),
(230,68,cs),
(213,91,o),
(209,171,o),
(209,226,cs),
(209,299,l),
(87,299,l),
(87,226,ls),
(87,171,o),
(82,92,o),
(67,68,cs),
(55,49,o),
(47,32,o),
(47,17,cs),
(47,-2,o),
(56,-5,o),
(75,-5,cs)
);
},
{
closed = 1;
nodes = (
(209,59,l),
(209,445,ls),
(209,501,o),
(204,510,o),
(186,510,cs),
(171,510,o),
(159,504,o),
(147,496,cs),
(54,435,ls),
(36,423,o),
(20,418,o),
(20,393,cs),
(20,379,o),
(38,376,o),
(56,363,cs),
(81,346,o),
(87,322,o),
(87,292,c),
(87,59,l)
);
},
{
closed = 1;
nodes = (
(209,59,l),
(209,445,ls),
(209,501,o),
(204,510,o),
(186,510,cs),
(171,510,o),
(159,504,o),
(147,496,cs),
(54,435,ls),
(36,423,o),
(20,418,o),
(20,393,cs),
(20,379,o),
(38,376,o),
(56,363,cs),
(81,346,o),
(87,322,o),
(87,292,c),
(87,59,l)
);
},
{
closed = 1;
nodes = (
(473,-5,ls),
(498,-5,o),
(505,0,o),
(505,19,cs),
(505,34,o),
(500,49,o),
(486,68,cs),
(469,91,o),
(464,164,o),
(464,299,cs),
(464,400,ls),
(464,456,o),
(473,510,o),
(393,510,cs),
(313,510,o),
(274,441,o),
(195,406,c),
(195,303,l),
(208,303,l),
(208,315,o),
(280,379,o),
(310,379,cs),
(340,379,o),
(345,349,o),
(344,278,cs),
(342,159,ls),
(341,119,o),
(332,83,o),
(323,68,cs),
(311,49,o),
(303,32,o),
(303,17,cs),
(303,-2,o),
(311,-5,o),
(330,-5,cs)
);
}
);
width = 781;
},
{
layerId = "D3645D82-36A4-4D10-ABA8-93DD64813C49";
shapes = (
{
closed = 1;
nodes = (
(787,-5,ls),
(812,-5,o),
(823,-2,o),
(823,17,cs),
(823,32,o),
(808,49,o),
(794,68,cs),
(777,91,o),
(758,169,o),
(722,299,cs),
(694,400,ls),
(679,454,o),
(677,510,o),
(597,510,cs),
(517,510,o),
(488,461,o),
(419,426,c),
(419,333,l),
(432,333,l),
(432,345,o),
(484,399,o),
(554,399,cs),
(584,399,o),
(587,347,o),
(606,278,cs),
(638,159,ls),
(649,120,o),
(655,83,o),
(646,68,cs),
(634,49,o),
(616,32,o),
(616,17,cs),
(616,-2,o),
(625,-5,o),
(644,-5,cs)
);
},
{
closed = 1;
nodes = (
(94,-5,o),
(178,-5,o),
(213,-5,cs),
(238,-5,o),
(249,-2,o),
(249,17,cs),
(249,32,o),
(244,49,o),
(230,68,cs),
(213,91,o),
(207,171,o),
(207,226,cs),
(207,299,l),
(87,299,l),
(87,226,ls),
(87,171,o),
(82,92,o),
(67,68,cs),
(55,49,o),
(47,32,o),
(47,17,cs),
(47,-2,o),
(56,-5,o),
(75,-5,cs)
);
},
{
closed = 1;
nodes = (
(207,59,l),
(207,445,ls),
(207,501,o),
(204,510,o),
(186,510,cs),
(171,510,o),
(159,504,o),
(147,496,cs),
(54,435,ls),
(36,423,o),
(20,418,o),
(20,393,cs),
(20,379,o),
(38,376,o),
(56,363,cs),
(81,346,o),
(87,322,o),
(87,292,c),
(87,59,l)
);
},
{
closed = 1;
nodes = (
(209,59,l),
(209,445,ls),
(209,501,o),
(204,510,o),
(186,510,cs),
(171,510,o),
(159,504,o),
(147,496,cs),
(54,435,ls),
(36,423,o),
(20,418,o),
(20,393,cs),
(20,379,o),
(38,376,o),
(56,363,cs),
(81,346,o),
(87,322,o),
(87,292,c),
(87,59,l)
);
},
{
closed = 1;
nodes = (
(473,-5,ls),
(498,-5,o),
(505,0,o),
(505,19,cs),
(505,34,o),
(498,49,o),
(484,68,cs),
(467,91,o),
(462,164,o),
(462,299,cs),
(462,400,ls),
(462,456,o),
(473,510,o),
(393,510,cs),
(313,510,o),
(204,441,o),
(135,406,c),
(135,313,l),
(148,313,l),
(148,325,o),
(230,389,o),
(310,389,cs),
(340,389,o),
(345,349,o),
(344,278,cs),
(342,159,ls),
(341,119,o),
(332,83,o),
(323,68,cs),
(311,49,o),
(303,32,o),
(303,17,cs),
(303,-2,o),
(311,-5,o),
(330,-5,cs)
);
}
);
width = 841;
}
);
metricLeft = n;
metricRight = n;
unicode = 109;
},
{
glyphname = n;
lastChange = "2024-05-24 15:15:32 +0000";
layers = (
{
guides = (
{
angle = 90;
pos = (321,278);
},
{
angle = 90;
pos = (443,278);
}
);
layerId = m01;
shapes = (
{
closed = 1;
nodes = (
(482,-5,ls),
(507,-5,o),
(514,0,o),
(514,19,cs),
(514,34,o),
(509,49,o),
(495,68,cs),
(478,91,o),
(473,164,o),
(473,299,cs),
(473,400,ls),
(473,456,o),
(482,510,o),
(402,510,cs),
(322,510,o),
(283,441,o),
(194,406,c),
(194,300,l),
(207,300,l),
(207,312,o),
(289,376,o),
(319,376,cs),
(349,376,o),
(354,349,o),
(353,278,cs),
(351,159,ls),
(350,119,o),
(341,83,o),
(332,68,cs),
(320,49,o),
(312,32,o),
(312,17,cs),
(312,-2,o),
(320,-5,o),
(339,-5,cs)
);
},
{
closed = 1;
nodes = (
(94,-5,o),
(178,-5,o),
(213,-5,cs),
(238,-5,o),
(249,-2,o),
(249,17,cs),
(249,32,o),
(244,49,o),
(230,68,cs),
(213,91,o),
(209,171,o),
(209,226,cs),
(209,299,l),
(87,299,l),
(87,226,ls),
(87,171,o),
(82,92,o),
(67,68,cs),
(55,49,o),
(47,32,o),
(47,17,cs),
(47,-2,o),
(56,-5,o),
(75,-5,cs)
);
},
{
closed = 1;
nodes = (
(209,59,l),
(209,445,ls),
(209,501,o),
(204,510,o),
(186,510,cs),
(171,510,o),
(159,504,o),
(147,496,cs),
(54,435,ls),
(36,423,o),
(20,418,o),
(20,393,cs),
(20,379,o),
(38,376,o),
(56,363,cs),
(81,346,o),
(87,322,o),
(87,292,c),
(87,59,l)
);
}
);
width = 534;
},
{
guides = (
{
angle = 104;
pos = (362,202);
}
);
layerId = "D3645D82-36A4-4D10-ABA8-93DD64813C49";
shapes = (
{
closed = 1;
nodes = (
(542,-5,ls),
(567,-5,o),
(578,-2,o),
(578,17,cs),
(578,32,o),
(563,49,o),
(549,68,cs),
(532,91,o),
(513,169,o),
(477,299,cs),
(449,400,ls),
(434,454,o),
(432,510,o),
(352,510,cs),
(272,510,o),
(243,471,o),
(174,436,c),
(174,323,l),
(187,323,l),
(187,335,o),
(239,379,o),
(309,379,cs),
(339,379,o),
(342,347,o),
(361,278,cs),
(393,159,ls),
(404,120,o),
(410,83,o),
(401,68,cs),
(389,49,o),
(371,32,o),
(371,17,cs),
(371,-2,o),
(380,-5,o),
(399,-5,cs)
);
},
{
closed = 1;
nodes = (
(94,-5,o),
(178,-5,o),
(213,-5,cs),
(238,-5,o),
(249,-2,o),
(249,17,cs),
(249,32,o),
(244,49,o),
(230,68,cs),
(213,91,o),
(209,171,o),
(209,226,cs),
(209,329,l),
(87,299,l),
(87,226,ls),
(87,171,o),
(82,92,o),
(67,68,cs),
(55,49,o),
(47,32,o),
(47,17,cs),
(47,-2,o),
(56,-5,o),
(75,-5,cs)
);
},
{
closed = 1;
nodes = (
(209,119,l),
(208,445,ls),
(208,501,o),
(204,510,o),
(186,510,cs),
(171,510,o),
(159,504,o),
(147,496,cs),
(54,435,ls),
(36,423,o),
(20,418,o),
(20,393,cs),
(20,379,o),
(38,376,o),
(56,363,cs),
(81,346,o),
(87,322,o),
(87,292,c),
(87,119,l)
);
}
);
width = 596;
},
{
associatedMasterId = m01;
guides = (
{
angle = 90;
pos = (321,278);
},
{
angle = 90;
pos = (443,278);
}
);
layerId = "4D7967DC-E365-47CA-BD6F-BCE446275763";
name = "May 17, 24 at 17:32";
shapes = (
{
closed = 1;
nodes = (
(452,-5,ls),
(477,-5,o),
(484,0,o),
(484,19,cs),
(484,34,o),
(479,49,o),
(465,68,cs),
(448,91,o),
(443,164,o),
(443,299,cs),
(443,400,ls),
(443,456,o),
(452,510,o),
(372,510,cs),
(292,510,o),
(253,441,o),
(184,406,c),
(184,293,l),
(197,293,l),
(197,305,o),
(259,369,o),
(289,369,cs),
(319,369,o),
(324,349,o),
(323,278,cs),
(321,159,ls),
(320,119,o),
(311,83,o),
(302,68,cs),
(290,49,o),
(282,32,o),
(282,17,cs),
(282,-2,o),
(290,-5,o),
(309,-5,cs)
);
},
{
closed = 1;
nodes = (
(94,-5,o),
(178,-5,o),
(213,-5,cs),
(238,-5,o),
(249,-2,o),
(249,17,cs),
(249,32,o),
(244,49,o),
(230,68,cs),
(213,91,o),
(209,171,o),
(209,226,cs),
(209,299,l),
(87,299,l),
(87,226,ls),
(87,171,o),
(82,92,o),
(67,68,cs),
(55,49,o),
(47,32,o),
(47,17,cs),
(47,-2,o),
(56,-5,o),
(75,-5,cs)
);
},
{
closed = 1;
nodes = (
(209,59,l),
(209,445,ls),
(209,501,o),
(204,510,o),
(186,510,cs),
(171,510,o),
(159,504,o),
(147,496,cs),
(54,435,ls),
(36,423,o),
(20,418,o),
(20,393,cs),
(20,379,o),
(38,376,o),
(56,363,cs),
(81,346,o),
(87,322,o),
(87,292,c),
(87,59,l)
);
}
);
width = 504;
}
);
unicode = 110;
},
{
glyphname = o;
lastChange = "2024-05-30 16:26:36 +0000";
layers = (
{
layerId = m01;
shapes = (
{
closed = 1;
nodes = (
(20,103,o),
(110,-8,o),
(267,-8,cs),
(420,-8,o),
(514,103,o),
(514,233,cs),
(514,362,o),
(420,512,o),
(267,512,cs),
(110,512,o),
(20,362,o),
(20,233,cs)
);
},
{
closed = 1;
nodes = (
(372,103,o),
(328,73,o),
(267,73,cs),
(208,73,o),
(162,103,o),
(162,233,cs),
(162,362,o),
(208,431,o),
(267,431,cs),
(328,431,o),
(372,362,o),
(372,233,cs)
);
}
);
width = 534;
},
{
layerId = "D3645D82-36A4-4D10-ABA8-93DD64813C49";
shapes = (
{
closed = 1;
nodes = (
(20,103,o),
(100,-8,o),
(257,-8,cs),
(410,-8,o),
(494,103,o),
(494,233,cs),
(494,362,o),
(410,512,o),
(257,512,cs),
(100,512,o),
(20,362,o),
(20,233,cs)
);
},
{
closed = 1;
nodes = (
(270,440,o),
(331,388,o),
(364,263,cs),
(398,137,o),
(362,94,o),
(303,79,cs),
(246,63,o),
(184,78,o),
(151,203,cs),
(117,328,o),
(154,409,o),
(211,424,cs)
);
}
);
width = 514;
},
{
associatedMasterId = m01;
layerId = "2092F305-F3D5-45A7-873D-A105C9220686";
name = "May 17, 24 at 17:31";
shapes = (
{
closed = 1;
nodes = (
(20,103,o),
(100,-8,o),
(257,-8,cs),
(410,-8,o),
(494,103,o),
(494,233,cs),
(494,362,o),
(410,512,o),
(257,512,cs),
(100,512,o),
(20,362,o),
(20,233,cs)
);
},
{
closed = 1;
nodes = (
(318,431,o),
(372,362,o),
(372,233,cs),
(372,103,o),
(318,73,o),
(257,73,cs),
(198,73,o),
(142,103,o),
(142,233,cs),
(142,362,o),
(198,431,o),
(257,431,cs)
);
}
);
width = 514;
}
);
metricLeft = "n-10";
metricRight = "n-10";
unicode = 111;
},
{
glyphname = p;
lastChange = "2024-05-30 16:23:10 +0000";
layers = (
{
guides = (
{
pos = (335,100);
}
);
layerId = m01;
shapes = (
{
closed = 1;
nodes = (
(402,394,o),
(432,329,o),
(432,252,cs),
(432,168,o),
(396,100,o),
(335,100,cs),
(273,100,o),
(239,148,o),
(239,252,cs),
(239,339,o),
(274,394,o),
(335,394,cs)
);
},
{
closed = 1;
nodes = (
(117,-30,l),
(117,-63,o),
(116,-120,o),
(94,-137,cs),
(77,-150,o),
(77,-163,o),
(77,-188,cs),
(77,-207,o),
(86,-210,o),
(105,-210,cs),
(145,-210,o),
(208,-210,o),
(243,-210,cs),
(265,-210,o),
(279,-207,o),
(279,-188,cs),
(279,-163,o),
(269,-153,o),
(259,-137,cs),
(250,-122,o),
(241,-91,o),
(241,-37,cs),
(241,59,l),
(272,4,o),
(316,-18,o),
(389,-18,cs),
(480,-18,o),
(552,89,o),
(552,225,cs),
(552,378,o),
(487,498,o),
(404,498,cs),
(276,498,o),
(268,437,o),
(242,437,cs),
(216,437,o),
(246,509,o),
(215,509,cs),
(184,509,o),
(140,473,o),
(121,461,cs),
(102,449,o),
(38,415,o),
(38,390,cs),
(38,365,o),
(117,370,o),
(117,325,cs),
(117,253,l)
);
}
);
width = 600;
},
{
guides = (
{
pos = (273,110);
},
{
pos = (310,409);
}
);
layerId = "D3645D82-36A4-4D10-ABA8-93DD64813C49";
shapes = (
{
closed = 1;
nodes = (
(220,344,o),
(239,409,o),
(311,409,cs),
(383,409,o),
(436,319,o),
(436,230,cs),
(436,141,o),
(376,92,o),
(308,113,cs),
(240,134,o),
(220,183,o),
(220,267,cs)
);
},
{
closed = 1;
nodes = (
(89,-20,l),
(89,-61,o),
(91,-96,o),
(90,-120,cs),
(89,-147,o),
(85,-162,o),
(72,-162,cs),
(47,-162,o),
(56,-198,o),
(90,-219,cs),
(124,-240,o),
(204,-280,o),
(218,-286,cs),
(232,-292,o),
(269,-305,o),
(285,-285,cs),
(301,-265,o),
(275,-240,o),
(263,-229,cs),
(251,-218,o),
(223,-180,o),
(223,-57,cs),
(223,89,l),
(238,34,o),
(338,-8,o),
(411,-8,cs),
(497,-8,o),
(564,81,o),
(564,195,cs),
(564,318,o),
(534,508,o),
(406,508,cs),
(278,508,o),
(250,447,o),
(224,447,cs),
(198,447,o),
(228,519,o),
(197,519,cs),
(166,519,o),
(122,483,o),
(103,471,cs),
(84,459,o),
(20,425,o),
(20,400,cs),
(20,375,o),
(89,380,o),
(89,335,cs),
(89,263,l)
);
}
);
width = 584;
}
);
unicode = 112;
},
{
glyphname = r;
lastChange = "2024-05-30 15:37:22 +0000";
layers = (
{
guides = (
{
angle = 90;
pos = (423,299);
}
);
layerId = m01;
shapes = (
{
closed = 1;
nodes = (
(94,-5,o),
(178,-5,o),
(213,-5,cs),
(238,-5,o),
(249,-2,o),
(249,17,cs),
(249,32,o),
(244,49,o),
(230,68,cs),
(213,91,o),
(209,171,o),
(209,226,cs),
(209,299,l),
(87,299,l),
(87,226,ls),
(87,171,o),
(82,92,o),
(67,68,cs),
(55,49,o),
(47,32,o),
(47,17,cs),
(47,-2,o),
(56,-5,o),
(75,-5,cs)
);
},
{
closed = 1;
nodes = (
(209,59,l),
(209,445,ls),
(209,501,o),
(204,510,o),
(186,510,cs),
(171,510,o),
(159,504,o),
(147,496,cs),
(54,435,ls),
(36,423,o),
(20,418,o),
(20,393,cs),
(20,379,o),
(38,376,o),
(56,363,cs),
(81,346,o),
(87,322,o),
(87,292,c),
(87,59,l)
);
},
{
closed = 1;
nodes = (
(140,260,l),
(213,341,ls),
(322,462,o),
(298,315,o),
(352,315,cs),
(395,315,o),
(423,343,o),
(423,397,cs),
(423,477,o),
(392,511,o),
(339,511,cs),
(285,511,o),
(232,474,o),
(192,428,c),
(140,389,l)
);
}
);
width = 423;
},
{
layerId = "D3645D82-36A4-4D10-ABA8-93DD64813C49";
shapes = (
{
closed = 1;
nodes = (
(94,-5,o),
(178,-5,o),
(213,-5,cs),
(238,-5,o),
(249,-2,o),
(249,17,cs),
(249,32,o),
(244,49,o),
(230,68,cs),
(213,91,o),
(209,171,o),
(209,226,cs),
(209,299,l),
(89,299,l),
(89,226,ls),
(89,171,o),
(82,92,o),
(67,68,cs),
(55,49,o),
(47,32,o),
(47,17,cs),
(47,-2,o),
(56,-5,o),
(75,-5,cs)
);
},
{
closed = 1;
nodes = (
(209,59,l),
(209,445,ls),
(209,501,o),
(204,510,o),
(186,510,cs),
(171,510,o),
(159,504,o),
(147,496,cs),
(54,435,ls),
(36,423,o),
(20,418,o),
(20,393,cs),
(20,379,o),
(38,376,o),
(56,363,cs),
(81,346,o),
(89,322,o),
(89,292,c),
(87,59,l)
);
},
{
closed = 1;
nodes = (
(140,270,l),
(229,351,ls),
(308,423,o),
(300,311,o),
(380,309,cs),
(415,309,o),
(486,346,o),
(457,372,cs),
(373,448,o),
(352,511,o),
(288,511,cs),
(221,511,o),
(253,478,o),
(204,432,c),
(140,389,l)
);
}
);
width = 464;
},
{
associatedMasterId = "D3645D82-36A4-4D10-ABA8-93DD64813C49";
layerId = "E924EC43-00EF-45FB-ADA3-88148B5CCFEF";
name = "May 17, 24 at 17:25";
shapes = (
{
closed = 1;
nodes = (
(94,-5,o),
(178,-5,o),
(213,-5,cs),
(238,-5,o),
(249,-2,o),
(249,17,cs),
(249,32,o),
(244,49,o),
(230,68,cs),
(213,91,o),
(209,171,o),
(209,226,cs),
(209,299,l),
(87,299,l),
(87,226,ls),
(87,171,o),
(82,92,o),
(67,68,cs),
(55,49,o),
(47,32,o),
(47,17,cs),
(47,-2,o),
(56,-5,o),
(75,-5,cs)
);
},
{
closed = 1;
nodes = (
(209,59,l),
(209,445,ls),
(209,501,o),
(204,510,o),
(186,510,cs),
(171,510,o),
(159,504,o),
(147,496,cs),
(54,435,ls),
(36,423,o),
(20,418,o),
(20,393,cs),
(20,379,o),
(38,376,o),
(56,363,cs),
(81,346,o),
(87,322,o),
(87,292,c),
(87,59,l)
);
},
{
closed = 1;
nodes = (
(140,270,l),
(229,351,ls),
(308,423,o),
(320,271,o),
(400,269,cs),
(435,269,o),
(487,303,o),
(487,342,cs),
(487,372,o),
(477,401,o),
(447,459,cs),
(425,498,o),
(406,511,o),
(372,511,cs),
(305,511,o),
(253,478,o),
(204,432,c),
(140,389,l)
);
}
);
width = 487;
},
{
associatedMasterId = "D3645D82-36A4-4D10-ABA8-93DD64813C49";
layerId = "9A2E3A5C-919D-4C3B-B8BC-97C0F2E2504E";
name = "May 17, 24 at 17:58";
shapes = (
{
closed = 1;
nodes = (
(94,-5,o),
(178,-5,o),
(213,-5,cs),
(238,-5,o),
(249,-2,o),
(249,17,cs),
(249,32,o),
(244,49,o),
(230,68,cs),
(213,91,o),
(209,171,o),
(209,226,cs),
(209,299,l),
(87,299,l),
(87,226,ls),
(87,171,o),
(82,92,o),
(67,68,cs),
(55,49,o),
(47,32,o),
(47,17,cs),
(47,-2,o),
(56,-5,o),
(75,-5,cs)
);
},
{
closed = 1;
nodes = (
(209,59,l),
(209,445,ls),
(209,501,o),
(204,510,o),
(186,510,cs),
(171,510,o),
(159,504,o),
(147,496,cs),
(54,435,ls),
(36,423,o),
(20,418,o),
(20,393,cs),
(20,379,o),
(38,376,o),
(56,363,cs),
(81,346,o),
(87,322,o),
(87,292,c),
(87,59,l)
);
},
{
closed = 1;
nodes = (
(140,270,l),
(229,351,ls),
(308,423,o),
(300,311,o),
(380,309,cs),
(415,309,o),
(457,333,o),
(457,372,cs),
(457,448,o),
(436,511,o),
(372,511,cs),
(305,511,o),
(253,478,o),
(204,432,c),
(140,389,l)
);
}
);
width = 467;
}
);
unicode = 114;
},
{
glyphname = s;
lastChange = "2024-05-24 14:44:54 +0000";
layers = (
{
layerId = m01;
shapes = (
{
closed = 1;
nodes = (
(165,511,o),
(86,463,o),
(86,385,cs),
(86,322,o),
(107,272,o),
(178,243,cs),
(220,225,o),
(323,209,o),
(339,202,cs),
(382,183,o),
(409,154,o),
(409,126,cs),
(409,92,o),
(371,80,o),
(256,80,cs),
(213,80,o),
(164,107,o),
(119,155,cs),
(104,171,o),
(102,180,o),
(77,180,cs),
(52,180,o),
(44,150,o),
(54,130,cs),
(64,110,o),
(116,12,o),
(123,0,cs),
(132,-15,o),
(161,-41,o),
(184,-41,cs),
(209,-41,o),
(227,9,o),
(244,9,cs),
(261,9,o),
(326,-11,o),
(376,-11,cs),
(431,-11,o),
(523,33,o),
(523,139,cs),
(523,245,o),
(436,298,o),
(402,311,cs),
(375,322,o),
(282,339,o),
(263,347,cs),
(219,365,o),
(204,379,o),
(204,405,cs),
(204,435,o),
(238,452,o),
(300,452,cs),
(340,452,o),
(393,419,o),
(421,377,cs),
(439,350,o),
(464,333,o),
(479,341,cs),
(494,349,o),
(500,367,o),
(492,385,cs),
(484,403,o),
(453,468,o),
(443,490,cs),
(435,508,o),
(420,525,o),
(405,525,cs),
(390,525,o),
(377,500,o),
(354,500,cs),
(331,500,o),
(313,511,o),
(266,511,cs)
);
}
);
width = 600;
},
{
layerId = "D3645D82-36A4-4D10-ABA8-93DD64813C49";
shapes = (
{
closed = 1;
nodes = (
(149,513,o),
(80,460,o),
(80,383,cs),
(80,310,o),
(101,270,o),
(154,248,cs),
(214,224,o),
(287,208,o),
(303,201,cs),
(319,194,o),
(373,166,o),
(373,125,cs),
(373,84,o),
(333,60,o),
(280,60,cs),
(217,60,o),
(168,118,o),
(174,139,cs),
(180,161,o),
(193,181,o),
(168,194,cs),
(147,205,o),
(132,202,o),
(120,184,cs),
(107,164,o),
(48,71,o),
(41,59,cs),
(34,44,o),
(-1,1,o),
(37,-13,cs),
(64,-23,o),
(111,18,o),
(154,18,cs),
(197,18,o),
(226,-11,o),
(330,-11,cs),
(397,-11,o),
(497,23,o),
(497,138,cs),
(497,253,o),
(441,282,o),
(405,296,cs),
(369,310,o),
(266,337,o),
(247,345,cs),
(225,354,o),
(208,380,o),
(208,403,cs),
(208,428,o),
(241,449,o),
(284,449,cs),
(324,449,o),
(389,441,o),
(379,411,cs),
(368,381,o),
(367,352,o),
(382,343,cs),
(398,336,o),
(417,341,o),
(426,358,cs),
(437,374,o),
(472,441,o),
(484,458,cs),
(497,475,o),
(505,506,o),
(484,510,cs),
(461,514,o),
(415,487,o),
(392,489,cs),
(370,491,o),
(297,513,o),
(250,513,cs)
);
}
);
width = 517;
}
);
unicode = 115;
},
{
glyphname = t;
lastChange = "2024-05-30 16:22:04 +0000";
layers = (
{
layerId = m01;
shapes = (
{
closed = 1;
nodes = (
(342,-15,o),
(335,95,o),
(335,118,cs),
(335,141,o),
(319,145,o),
(308,145,cs),
(297,145,o),
(275,144,o),
(275,122,cs),
(275,100,o),
(252,80,o),
(228,80,cs),
(204,80,o),
(187,90,o),
(187,126,c),
(187,410,ls),
(187,425,o),
(192,430,o),
(205,430,cs),
(291,430,ls),
(300,430,o),
(308,445,o),
(308,470,cs),
(308,495,o),
(300,510,o),
(291,510,cs),
(192,510,ls),
(187,510,o),
(184,516,o),
(184,521,cs),
(184,526,o),
(183,593,o),
(183,604,cs),
(183,615,o),
(183,628,o),
(161,628,cs),
(152,628,o),
(115,592,o),
(81,560,cs),
(57,537,o),
(36,516,o),
(27,511,cs),
(18,505,o),
(11,493,o),
(11,470,cs),
(11,447,o),
(15,431,o),
(38,431,cs),
(58,431,o),
(65,422,o),
(65,394,cs),
(65,106,l),
(65,92,o),
(54,-15,o),
(198,-15,cs)
);
}
);
width = 344;
},
{
layerId = "D3645D82-36A4-4D10-ABA8-93DD64813C49";
shapes = (
{
closed = 1;
nodes = (
(351,-15,o),
(344,95,o),
(344,118,cs),
(344,141,o),
(328,145,o),
(317,145,cs),
(306,145,o),
(284,144,o),
(284,122,cs),
(284,100,o),
(261,80,o),
(237,80,cs),
(213,80,o),
(196,90,o),
(196,126,c),
(196,419,ls),
(196,434,o),
(201,439,o),
(214,439,cs),
(270,439,ls),
(280,439,o),
(287,454,o),
(287,472,cs),
(287,493,o),
(280,509,o),
(270,509,cs),
(211,509,ls),
(196,509,o),
(193,595,o),
(193,620,cs),
(193,625,o),
(192,642,o),
(192,653,cs),
(192,694,o),
(192,707,o),
(170,707,cs),
(148,707,o),
(122,670,o),
(119,642,cs),
(110,564,o),
(45,517,o),
(37,509,cs),
(21,493,o),
(20,488,o),
(20,472,cs),
(20,453,o),
(24,440,o),
(47,440,cs),
(67,440,o),
(76,431,o),
(76,403,cs),
(76,106,l),
(76,92,o),
(63,-15,o),
(207,-15,cs)
);
}
);
width = 364;
},
{
associatedMasterId = m01;
layerId = "094FB39A-DA03-4A48-BC15-2474C8467D5C";
name = "May 24, 24 at 17:16";
shapes = (
{
closed = 1;
nodes = (
(342,-15,o),
(335,95,o),
(335,118,cs),
(335,141,o),
(319,145,o),
(308,145,cs),
(297,145,o),
(275,144,o),
(275,122,cs),
(275,100,o),
(252,80,o),
(228,80,cs),
(204,80,o),
(187,90,o),
(187,126,c),
(187,490,ls),
(187,505,o),
(192,510,o),
(205,510,cs),
(291,510,ls),
(300,510,o),
(308,525,o),
(308,550,cs),
(308,575,o),
(300,590,o),
(291,590,cs),
(192,590,ls),
(187,590,o),
(184,596,o),
(184,601,cs),
(184,606,o),
(183,673,o),
(183,684,cs),
(183,695,o),
(183,708,o),
(161,708,cs),
(139,708,o),
(113,667,o),
(85,639,cs),
(52,606,o),
(43,601,o),
(27,591,cs),
(18,585,o),
(11,573,o),
(11,550,cs),
(11,527,o),
(15,511,o),
(38,511,cs),
(58,511,o),
(65,502,o),
(65,474,cs),
(65,106,l),
(65,92,o),
(54,-15,o),
(198,-15,cs)
);
}
);
width = 344;
}
);
unicode = 116;
},
{
glyphname = u;
lastChange = "2024-05-30 15:34:57 +0000";
layers = (
{
background = {
shapes = (
{
closed = 1;
nodes = (
(218,-10,o),
(256,43,o),
(311,79,c),
(311,55,ls),
(311,22,o),
(326,0,o),
(344,0,cs),
(456,0,ls),
(473,0,o),
(479,11,o),
(479,26,cs),
(479,40,o),
(472,59,o),
(454,72,cs),
(439,83,o),
(433,178,o),
(433,208,cs),
(434,361,ls),
(434,394,o),
(436,411,o),
(436,427,cs),
(436,445,o),
(452,479,o),
(436,499,cs),
(420,519,o),
(383,506,o),
(369,500,cs),
(355,494,o),
(286,454,o),
(273,446,cs),
(232,421,o),
(269,376,o),
(294,376,cs),
(307,376,o),
(312,361,o),
(312,334,cs),
(312,188,l),
(292,165,o),
(253,131,o),
(231,131,cs),
(201,131,o),
(196,151,o),
(197,222,cs),
(199,361,ls),
(199,394,o),
(201,411,o),
(201,427,cs),
(201,445,o),
(217,479,o),
(201,499,cs),
(185,519,o),
(148,506,o),
(134,500,cs),
(120,494,o),
(51,454,o),
(38,446,cs),
(-3,421,o),
(34,376,o),
(59,376,cs),
(72,376,o),
(77,361,o),
(77,334,cs),
(77,100,ls),
(77,44,o),
(68,-10,o),
(148,-10,cs)
);
}
);
};
layerId = m01;
shapes = (
{
closed = 1;
nodes = (
(218,-10,o),
(256,43,o),
(311,79,c),
(311,55,ls),
(311,-1,o),
(356,-10,o),
(374,-10,cs),
(389,-10,o),
(400,-4,o),
(413,4,cs),
(466,35,ls),
(484,46,o),
(490,59,o),
(490,74,cs),
(490,88,o),
(482,94,o),
(464,107,cs),
(439,124,o),
(433,178,o),
(433,208,cs),
(433,361,ls),
(433,394,o),
(431,432,o),
(443,443,cs),
(455,454,o),
(461,469,o),
(445,489,cs),
(429,509,o),
(420,510,o),
(406,510,cs),
(391,510,o),
(303,464,o),
(269,443,cs),
(235,422,o),
(268,376,o),
(293,376,cs),
(306,376,o),
(311,361,o),
(311,334,cs),
(311,178,l),
(291,155,o),
(253,121,o),
(231,121,cs),
(201,121,o),
(196,151,o),
(197,222,cs),
(199,361,ls),
(199,394,o),
(197,432,o),
(209,443,cs),
(221,454,o),
(227,469,o),
(211,489,cs),
(195,509,o),
(190,510,o),
(172,510,cs),
(157,510,o),
(69,464,o),
(35,443,cs),
(1,422,o),
(34,376,o),
(59,376,cs),
(72,376,o),
(77,361,o),
(77,334,cs),
(77,100,ls),
(77,44,o),
(68,-10,o),
(148,-10,cs)
);
}
);
width = 510;
},
{
layerId = "D3645D82-36A4-4D10-ABA8-93DD64813C49";
shapes = (
{
closed = 1;
nodes = (
(193,-10,o),
(241,43,o),
(296,79,c),
(296,55,ls),
(296,-1,o),
(301,-10,o),
(319,-10,cs),
(334,-10,o),
(346,-4,o),
(358,4,cs),
(451,65,ls),
(469,77,o),
(485,89,o),
(485,104,cs),
(485,118,o),
(467,124,o),
(449,137,cs),
(424,154,o),
(416,178,o),
(416,208,cs),
(416,361,ls),
(416,394,o),
(436,432,o),
(448,443,cs),
(460,454,o),
(486,479,o),
(470,499,cs),
(454,519,o),
(417,506,o),
(403,500,cs),
(389,494,o),
(330,454,o),
(296,433,cs),
(262,412,o),
(253,376,o),
(278,376,cs),
(291,376,o),
(296,361,o),
(296,334,cs),
(296,178,l),
(276,155,o),
(228,121,o),
(206,121,cs),
(176,121,o),
(171,141,o),
(172,212,cs),
(174,361,ls),
(174,394,o),
(192,432,o),
(204,443,cs),
(216,454,o),
(242,479,o),
(226,499,cs),
(210,519,o),
(173,506,o),
(159,500,cs),
(145,494,o),
(86,454,o),
(52,433,cs),
(18,412,o),
(9,376,o),
(34,376,cs),
(47,376,o),
(53,361,o),
(53,334,cs),
(53,100,ls),
(53,44,o),
(43,-10,o),
(123,-10,cs)
);
}
);
width = 503;
}
);
metricLeft = n;
metricRight = n;
unicode = 117;
},
{
glyphname = v;
lastChange = "2024-05-24 15:19:22 +0000";
layers = (
{
layerId = m01;
shapes = (
{
closed = 1;
nodes = (
(355,-5,o),
(383,44,o),
(418,113,cs),
(442,161,o),
(461,222,o),
(474,266,cs),
(492,327,o),
(500,387,o),
(511,415,cs),
(519,435,o),
(538,468,o),
(538,491,cs),
(538,515,o),
(503,510,o),
(481,510,cs),
(410,511,ls),
(395,511,o),
(371,510,o),
(371,495,cs),
(371,467,o),
(400,442,o),
(403,417,cs),
(407,382,o),
(398,358,o),
(390,311,cs),
(385,282,o),
(377,239,o),
(363,196,cs),
(346,148,o),
(340,106,o),
(294,106,cs),
(248,106,o),
(230,259,o),
(214,311,cs),
(195,374,o),
(199,363,o),
(192,397,cs),
(181,448,o),
(217,467,o),
(217,495,cs),
(217,510,o),
(193,511,o),
(178,511,cs),
(67,510,ls),
(45,510,o),
(10,515,o),
(10,491,cs),
(10,468,o),
(42,435,o),
(50,415,cs),
(61,387,o),
(78,327,o),
(96,266,cs),
(128,159,o),
(177,-5,o),
(289,-5,cs)
);
}
);
width = 561;
},
{
layerId = "D3645D82-36A4-4D10-ABA8-93DD64813C49";
shapes = (
{
closed = 1;
nodes = (
(354,-5,o),
(406,30,o),
(460,166,cs),
(494,251,o),
(489,359,o),
(489,390,cs),
(489,426,o),
(483,450,o),
(483,462,cs),
(483,472,o),
(487,481,o),
(487,493,cs),
(487,512,o),
(462,517,o),
(442,504,cs),
(334,435,ls),
(318,425,o),
(316,419,o),
(332,403,cs),
(344,391,o),
(364,399,o),
(386,380,cs),
(404,365,o),
(416,330,o),
(408,288,cs),
(402,258,o),
(388,193,o),
(365,160,cs),
(346,132,o),
(319,106,o),
(299,106,cs),
(258,106,o),
(223,269,o),
(218,327,cs),
(215,363,o),
(211,406,o),
(208,445,c),
(208,501,o),
(204,510,o),
(186,510,cs),
(171,510,o),
(159,504,o),
(147,496,cs),
(54,435,ls),
(36,423,o),
(20,418,o),
(20,393,cs),
(20,379,o),
(38,376,o),
(56,363,cs),
(81,346,o),
(90,322,o),
(107,292,cs),
(147,158,o),
(187,-5,o),
(299,-5,cs)
);
}
);
width = 509;
},
{
associatedMasterId = m01;
background = {
shapes = (
{
closed = 1;
nodes = (
(391,-5,o),
(431,158,o),
(471,292,cs),
(488,322,o),
(513,418,o),
(527,444,cs),
(537,464,o),
(551,475,o),
(545,488,cs),
(533,510,o),
(517,509,o),
(495,510,cs),
(389,510,ls),
(375,510,o),
(345,515,o),
(345,500,cs),
(345,488,o),
(333,486,o),
(359,437,c),
(375,401,o),
(391,361,o),
(360,327,cs),
(320,284,o),
(320,126,o),
(279,126,cs),
(249,126,o),
(246,158,o),
(227,227,cs),
(195,346,ls),
(184,385,o),
(178,422,o),
(187,437,cs),
(199,456,o),
(217,473,o),
(217,488,cs),
(217,507,o),
(208,510,o),
(189,510,cs),
(46,510,ls),
(21,510,o),
(10,507,o),
(10,488,cs),
(10,473,o),
(25,456,o),
(39,437,cs),
(56,414,o),
(75,336,o),
(111,206,cs),
(139,105,ls),
(154,51,o),
(186,-5,o),
(279,-5,cs)
);
}
);
};
layerId = "D54D14F5-EA9B-42A5-8475-6911A14DF547";
name = "May 18, 24 at 00:54";
shapes = (
{
closed = 1;
nodes = (
(177,158,o),
(217,-5,o),
(329,-5,cs),
(375,-5,o),
(410,22,o),
(437,61,cs),
(466,102,o),
(486,156,o),
(502,206,cs),
(556,374,o),
(508,410,o),
(509,438,cs),
(509,462,o),
(517,482,o),
(517,496,cs),
(517,513,o),
(492,518,o),
(472,505,cs),
(364,436,ls),
(348,426,o),
(320,409,o),
(330,394,cs),
(340,380,o),
(390,401,o),
(410,383,cs),
(424,371,o),
(464,353,o),
(419,223,cs),
(413,206,o),
(400,184,o),
(384,165,cs),
(366,143,o),
(345,126,o),
(329,126,cs),
(288,126,o),
(253,269,o),
(248,327,cs),
(245,363,o),
(241,406,o),
(238,445,c),
(238,501,o),
(234,510,o),
(216,510,cs),
(201,510,o),
(189,504,o),
(177,496,cs),
(84,435,ls),
(66,423,o),
(50,418,o),
(50,393,cs),
(50,379,o),
(68,376,o),
(86,363,cs),
(111,346,o),
(120,322,o),
(137,292,cs)
);
}
);
width = 561;
}
);
unicode = 118;
},
{
glyphname = four;
lastChange = "2024-05-31 11:05:35 +0000";
layers = (
{
layerId = m01;
shapes = (
{
closed = 1;
nodes = (
(196,115,o),
(114,114,o),
(88,114,cs),
(62,114,o),
(20,114,o),
(20,200,cs),
(20,256,o),
(66,306,o),
(128,383,cs),
(317,613,l),
(380,688,o),
(382,708,o),
(417,708,cs),
(430,708,o),
(438,696,o),
(442,680,cs),
(447,658,o),
(447,628,o),
(447,607,cs),
(447,322,l),
(447,246,o),
(453,232,o),
(463,232,cs),
(473,232,o),
(486,232,o),
(493,232,cs),
(500,232,o),
(509,221,o),
(509,213,cs),
(509,141,l),
(509,122,o),
(502,115,o),
(481,115,cs),
(456,115,o),
(447,108,o),
(447,88,cs),
(447,63,o),
(447,39,o),
(447,14,cs),
(447,-1,o),
(438,-8,o),
(412,-8,cs),
(354,-8,l),
(340,-8,o),
(324,-11,o),
(324,19,cs),
(324,39,o),
(324,60,o),
(324,80,c),
(324,100,o),
(311,115,o),
(288,115,cs),
(250,115,l)
);
},
{
closed = 1;
nodes = (
(117,245,o),
(163,220,o),
(178,220,cs),
(193,220,o),
(268,220,o),
(288,220,cs),
(308,220,o),
(324,234,o),
(324,282,c),
(324,427,ls),
(324,455,o),
(284,466,o),
(264,439,c),
(160,302,ls)
);
}
);
width = 529;
},
{
layerId = "D3645D82-36A4-4D10-ABA8-93DD64813C49";
shapes = (
{
closed = 1;
nodes = (
(186,175,o),
(114,174,o),
(88,174,cs),
(62,174,o),
(20,174,o),
(20,220,cs),
(20,266,o),
(41,301,o),
(98,383,cs),
(257,613,l),
(320,688,o),
(332,708,o),
(367,708,cs),
(382,708,o),
(416,712,o),
(432,692,cs),
(448,671,o),
(447,626,o),
(447,607,cs),
(447,322,l),
(447,306,o),
(453,292,o),
(463,292,cs),
(473,292,o),
(486,292,o),
(493,292,cs),
(500,292,o),
(509,281,o),
(509,273,cs),
(509,201,l),
(509,182,o),
(502,175,o),
(481,175,cs),
(456,175,o),
(441,168,o),
(441,148,cs),
(441,71,o),
(477,59,o),
(477,24,cs),
(477,-1,o),
(468,-8,o),
(442,-8,cs),
(334,-8,l),
(320,-8,o),
(274,-11,o),
(274,19,cs),
(274,61,o),
(314,71,o),
(314,140,cs),
(314,159,o),
(301,175,o),
(278,175,cs),
(240,175,l)
);
},
{
closed = 1;
nodes = (
(150,314,o),
(163,300,o),
(178,300,cs),
(193,300,o),
(268,300,o),
(288,300,cs),
(308,300,o),
(322,307,o),
(322,332,c),
(322,517,ls),
(322,555,o),
(304,537,o),
(284,510,c),
(171,344,ls)
);
}
);
width = 509;
}
);
unicode = 52;
},
{
glyphname = seven;
lastChange = "2024-05-31 11:05:17 +0000";
layers = (
{
layerId = m01;
shapes = (
{
closed = 1;
nodes = (
(484,707,l),
(550,707,o),
(564,684,o),
(539,616,cs),
(448,364,l),
(372,140,l),
(339,22,l),
(330,-1,o),
(313,-9,o),
(291,-9,cs),
(266,-9,o),
(187,-3,o),
(173,0,cs),
(145,6,o),
(118,22,o),
(118,40,cs),
(118,60,o),
(155,113,o),
(172,140,cs),
(189,167,o),
(370,503,o),
(378,517,cs),
(390,537,o),
(393,570,o),
(360,570,cs),
(336,570,o),
(222,570,o),
(207,570,cs),
(192,570,o),
(162,563,o),
(145,554,cs),
(126,544,o),
(84,509,o),
(63,509,cs),
(30,509,o),
(20,539,o),
(20,590,cs),
(20,638,o),
(36,684,o),
(43,695,cs),
(50,706,o),
(70,734,o),
(92,734,cs),
(123,734,o),
(155,707,o),
(185,707,cs)
);
}
);
width = 571;
},
{
layerId = "D3645D82-36A4-4D10-ABA8-93DD64813C49";
shapes = (
{
closed = 1;
nodes = (
(490,707,l),
(556,707,o),
(570,684,o),
(545,616,cs),
(454,364,l),
(378,140,l),
(345,34,l),
(336,11,o),
(329,3,o),
(317,3,cs),
(292,3,o),
(173,2,o),
(161,2,cs),
(133,2,o),
(123,8,o),
(123,26,cs),
(123,46,o),
(161,113,o),
(178,140,cs),
(195,167,o),
(402,513,o),
(410,527,cs),
(422,547,o),
(425,580,o),
(392,580,cs),
(368,580,o),
(228,580,o),
(213,580,cs),
(198,580,o),
(110,571,o),
(94,559,cs),
(78,547,o),
(33,513,o),
(20,513,cs),
(7,513,o),
(-6,527,o),
(3,554,cs),
(12,581,o),
(79,703,o),
(85,715,cs),
(91,728,o),
(104,742,o),
(117,742,cs),
(140,742,o),
(161,707,o),
(191,707,cs)
);
}
);
width = 557;
}
);
unicode = 55;
},
{
glyphname = eight;
lastChange = "2024-05-31 13:09:22 +0000";
layers = (
{
layerId = m01;
shapes = (
{
closed = 1;
nodes = (
(471,0,o),
(585,91,o),
(585,203,cs),
(585,314,o),
(521,381,o),
(386,381,c),
(230,381,l),
(40,381,o),
(29,277,o),
(29,193,cs),
(29,105,o),
(103,0,o),
(312,0,cs)
);
},
{
closed = 1;
nodes = (
(248,73,o),
(202,95,o),
(202,189,cs),
(202,283,o),
(248,333,o),
(307,333,cs),
(368,333,o),
(412,283,o),
(412,189,cs),
(412,95,o),
(368,73,o),
(307,73,cs)
);
},
{
closed = 1;
nodes = (
(378,375,l),
(549,375,o),
(570,466,o),
(570,540,cs),
(570,617,o),
(499,709,o),
(300,709,cs),
(149,709,o),
(40,629,o),
(40,531,cs),
(40,434,o),
(92,375,o),
(230,375,c)
);
},
{
closed = 1;
nodes = (
(248,413,o),
(202,435,o),
(202,529,cs),
(202,623,o),
(248,673,o),
(307,673,cs),
(368,673,o),
(412,623,o),
(412,529,cs),
(412,435,o),
(368,413,o),
(307,413,cs)
);
}
);
width = 600;
},
{
layerId = "D3645D82-36A4-4D10-ABA8-93DD64813C49";
shapes = (
{
closed = 1;
nodes = (
(471,0,o),
(585,91,o),
(585,203,cs),
(585,314,o),
(521,381,o),
(386,381,c),
(230,381,l),
(40,381,o),
(29,277,o),
(29,193,cs),
(29,105,o),
(103,0,o),
(312,0,cs)
);
},
{
closed = 1;
nodes = (
(262,71,o),
(182,129,o),
(182,217,cs),
(182,288,o),
(204,336,o),
(280,336,cs),
(375,336,o),
(433,273,o),
(433,183,cs),
(433,126,o),
(414,71,o),
(319,71,cs)
);
},
{
closed = 1;
nodes = (
(378,375,l),
(549,375,o),
(570,466,o),
(570,540,cs),
(570,617,o),
(499,709,o),
(300,709,cs),
(149,709,o),
(40,629,o),
(40,531,cs),
(40,434,o),
(92,375,o),
(230,375,c)
);
},
{
closed = 1;
nodes = (
(250,418,o),
(195,481,o),
(195,560,cs),
(195,610,o),
(213,658,o),
(303,658,cs),
(357,658,o),
(434,599,o),
(434,522,cs),
(434,460,o),
(413,418,o),
(340,418,cs)
);
}
);
width = 600;
},
{
associatedMasterId = "D3645D82-36A4-4D10-ABA8-93DD64813C49";
layerId = "61F1E6A8-29DA-4DE7-A2B8-7C296E9333AE";
name = "May 31, 24 at 15:05";
shapes = (
{
closed = 1;
nodes = (
(209,709,o),
(40,629,o),
(40,531,cs),
(40,444,o),
(101,407,o),
(101,385,cs),
(101,364,o),
(19,309,o),
(19,219,cs),
(19,30,o),
(234,0,o),
(317,0,cs),
(427,0,o),
(569,68,o),
(569,209,cs),
(569,368,o),
(489,368,o),
(489,406,cs),
(489,441,o),
(570,484,o),
(570,543,cs),
(570,602,o),
(449,709,o),
(300,709,cs)
);
},
{
closed = 1;
nodes = (
(282,305,o),
(338,286,o),
(359,279,cs),
(419,260,o),
(434,202,o),
(433,181,cs),
(430,144,o),
(393,112,o),
(339,112,cs),
(269,112,o),
(168,165,o),
(161,260,cs),
(157,312,o),
(174,329,o),
(229,329,cs)
);
},
{
closed = 1;
nodes = (
(328,638,o),
(434,580,o),
(434,533,cs),
(434,485,o),
(403,437,o),
(350,437,cs),
(304,437,o),
(236,492,o),
(205,531,cs),
(173,571,o),
(205,638,o),
(283,638,cs)
);
}
);
width = 600;
}
);
unicode = 56;
},
{
glyphname = period;
lastChange = "2024-05-24 13:07:01 +0000";
layers = (
{
layerId = m01;
shapes = (
{
closed = 1;
nodes = (
(154,-10,o),
(190,26,o),
(190,70,cs),
(190,114,o),
(154,150,o),
(110,150,cs),
(66,150,o),
(30,114,o),
(30,70,cs),
(30,26,o),
(66,-10,o),
(110,-10,cs)
);
}
);
width = 220;
},
{
background = {
shapes = (
{
closed = 1;
nodes = (
(190,122,o),
(166,153,o),
(122,153,cs),
(78,153,o),
(30,112,o),
(30,68,cs),
(30,29,o),
(48,-2,o),
(100,-2,cs),
(129,-2,o),
(25,-87,o),
(80,-87,cs),
(106,-87,o),
(190,1,o),
(190,78,cs)
);
}
);
};
layerId = "D3645D82-36A4-4D10-ABA8-93DD64813C49";
shapes = (
{
closed = 1;
nodes = (
(137,-17,o),
(178,10,o),
(188,53,cs),
(198,96,o),
(173,139,o),
(134,148,cs),
(94,157,o),
(53,130,o),
(43,87,cs),
(33,44,o),
(58,1,o),
(98,-8,cs)
);
}
);
width = 220;
}
);
unicode = 46;
},
{
glyphname = comma;
lastChange = "2024-05-24 13:06:25 +0000";
layers = (
{
guides = (
{
angle = 90;
pos = (110,60);
}
);
layerId = m01;
shapes = (
{
closed = 1;
nodes = (
(190,114,o),
(154,150,o),
(110,150,cs),
(66,150,o),
(30,114,o),
(30,70,cs),
(30,26,o),
(66,0,o),
(90,0,cs),
(149,0,o),
(45,-85,o),
(100,-85,cs),
(126,-85,o),
(190,-17,o),
(190,70,cs)
);
}
);
width = 220;
},
{
background = {
shapes = (
{
closed = 1;
nodes = (
(34,112,o),
(-12,58,o),
(18,10,cs),
(42,-28,o),
(79,-24,o),
(139,7,cs),
(199,38,o),
(226,87,o),
(205,125,cs),
(175,179,o),
(111,165,o),
(76,141,cs)
);
}
);
};
layerId = "D3645D82-36A4-4D10-ABA8-93DD64813C49";
shapes = (
{
closed = 1;
nodes = (
(200,114,o),
(176,145,o),
(132,145,cs),
(88,145,o),
(40,104,o),
(40,60,cs),
(40,21,o),
(58,-10,o),
(110,-10,cs),
(139,-10,o),
(35,-95,o),
(90,-95,cs),
(116,-95,o),
(200,-7,o),
(200,70,cs)
);
}
);
width = 220;
}
);
unicode = 44;
},
